<?xml version="1.0" encoding="UTF-8"?>
<svg id="Layer_1" xmlns="http://www.w3.org/2000/svg" version="1.1" viewBox="0 0 841.89 595.28">
  <!-- Generator: Adobe Illustrator 29.7.1, SVG Export Plug-In . SVG Version: 2.1.1 Build 8)  -->
  <defs>
    <style>
      .st0 {
        fill: #74675d;
      }

      .st1 {
        fill: #0a2c4b;
      }

      .st2 {
        fill: #ee2e24;
      }

      .st3, .st4 {
        fill: #fcd01a;
      }

      .st4 {
        stroke: #fcd01a;
        stroke-miterlimit: 10;
        stroke-width: 2px;
      }
    </style>
  </defs>
  <circle class="st1" cx="420.94" cy="297.64" r="219.12"/>
  <path class="st0" d="M421.97,172.58c-.72.05-1.39.14-2.06.24v-.34c.67,0,1.39.05,2.06.1Z"/>
  <path class="st3" d="M522.91,256.72v122.09c0,14.6-11.87,26.42-26.47,26.42h-20.25c-14.6,0-26.42-11.82-26.42-26.42v-60.59c0-14.6-11.82-26.42-26.42-26.42h-4.83c-14.6,0-26.47,11.82-26.47,26.42v60.59c0,14.6-11.82,26.42-26.42,26.42h-20.25c-14.6,0-26.42-11.82-26.42-26.42v-122.09c0-8.33,3.92-16.18,10.63-21.15l77.63-57.86c3.54-2.58,7.51-4.21,11.58-4.88.67-.1,1.34-.19,2.06-.24h.14c.72.05,1.39.14,2.06.24,4.07.67,8.04,2.3,11.53,4.88l77.63,57.86c6.7,4.98,10.67,12.83,10.67,21.15Z"/>
  <path class="st0" d="M421.97,172.49v.34c-.67-.1-1.34-.19-2.06-.24.67-.05,1.34-.1,2.06-.1Z"/>
  <path class="st2" d="M420.95,223.76c10.16,0,18.4,8.14,18.4,18.19s-8.24,18.19-18.4,18.19-18.4-8.14-18.4-18.19,8.24-18.19,18.4-18.19Z"/>
  <path class="st4" d="M420.94,123.84c-95.98,0-173.79,77.81-173.79,173.79s77.81,173.79,173.79,173.79,173.79-77.81,173.79-173.79-77.81-173.79-173.79-173.79ZM420.94,468.7c-94.47,0-171.06-76.59-171.06-171.06s76.59-171.06,171.06-171.06,171.06,76.59,171.06,171.06-76.59,171.06-171.06,171.06Z"/>
</svg>