<?xml version="1.0" encoding="UTF-8"?>
<svg id="Layer_1" xmlns="http://www.w3.org/2000/svg" version="1.1" viewBox="0 0 841.89 595.28">
  <!-- Generator: Adobe Illustrator 29.7.1, SVG Export Plug-In . SVG Version: 2.1.1 Build 8)  -->
  <defs>
    <style>
      .st0 {
        fill: #e22e28;
      }

      .st1 {
        fill: #e0bb24;
      }

      .st2 {
        fill: #0a2c4b;
      }

      .st3 {
        fill: #c02626;
      }

      .st4 {
        fill: #faa622;
      }

      .st5 {
        fill: #ee2e24;
      }

      .st6, .st7 {
        fill: #fcd01a;
      }

      .st7 {
        stroke: #fcd01a;
        stroke-miterlimit: 10;
        stroke-width: 2px;
      }
    </style>
  </defs>
  <circle class="st2" cx="423.65" cy="297.64" r="219.12"/>
  <path class="st7" d="M423.65,123.84c-95.98,0-173.79,77.81-173.79,173.79s77.81,173.79,173.79,173.79,173.79-77.81,173.79-173.79-77.81-173.79-173.79-173.79ZM423.65,468.7c-94.47,0-171.06-76.59-171.06-171.06s76.59-171.06,171.06-171.06,171.06,76.59,171.06,171.06-76.59,171.06-171.06,171.06Z"/>
  <polygon class="st4" points="388.33 358.75 323.1 382.26 323.1 236.53 388.33 213.01 388.33 358.75"/>
  <polygon class="st4" points="518.79 358.75 453.56 382.26 453.56 236.53 518.79 213.01 518.79 358.75"/>
  <polygon class="st1" points="453.56 236.53 388.33 213.01 388.33 358.75 453.56 382.26 453.56 236.53"/>
  <polygon class="st4" points="388.33 358.75 323.1 382.26 323.1 236.53 388.33 213.01 388.33 358.75"/>
  <polygon class="st4" points="518.79 358.75 453.56 382.26 453.56 236.53 518.79 213.01 518.79 358.75"/>
  <polygon class="st4" points="388.33 358.75 323.1 382.26 323.1 236.53 388.33 213.01 388.33 358.75"/>
  <polygon class="st4" points="518.79 358.75 453.56 382.26 453.56 236.53 518.79 213.01 518.79 358.75"/>
  <polygon class="st4" points="388.33 358.75 323.1 382.26 323.1 236.53 388.33 213.01 388.33 358.75"/>
  <polygon class="st4" points="518.79 358.75 453.56 382.26 453.56 236.53 518.79 213.01 518.79 358.75"/>
  <polygon class="st6" points="388.33 358.75 323.1 382.26 323.1 236.53 388.33 213.01 388.33 358.75"/>
  <polygon class="st6" points="518.79 358.75 453.56 382.26 453.56 236.53 518.79 213.01 518.79 358.75"/>
  <path class="st0" d="M453.56,382.26l65.23-23.52v-12.41c-1.67-.88-2.14-1.05-4.12-1.13-1.91-.09-2.51-1.38-4.12-1.96-.61-.22-1.38.13-1.91-.22-.58-.39-.83-1.53-1.36-2.01-.82-.75-1.72-.91-2.4-1.97-1.15-1.8-1.43-3.07-3.78-3.5-2.49-.45-4.7-.82-7.05-2.01-2.03-1.03-3.23-2.05-5.48-2.08-1.45-.02-3.25-.28-4.66-.04-2.81.5-6.04,2.5-9.08,1.3-1.38-.54-2.25-2.44-3.59-3.17-1.2-.65-2.91-.74-4-1.67-1.04-.88-1.76-2.82-2.54-3.98-1.05-1.55-2.23-2.82-3.6-4.13-2.18-2.1-5.33-1.34-8.24-1.36-1.81-.01-3.01-.07-4.27,1.3-1.44,1.57-2.14,3.4-3.97,4.72-2.24,1.62-4.5,2.37-6.87,3.59-2.44,1.25-5.3,2.26-7.72,3.26-1.07.44-1.66.94-2.55,1.69-1.63,1.39-2.79,1.23-4.85,1.22-3.17-.02-6.74-.58-9.59.86-1.37.69-2.57,2.14-4.12,1.76-1.35-.33-2.52-1.62-3.59-2.43-1.45-1.1-3.02-2.27-4.65-2.96-1.42-.59-2.86-1.07-4.12-2.02-1.65-1.26-2.01-1.42-4.12-1.39-1.63.02-2.6-.46-4.12-.72-1.34-.24-3.7-.25-4.65.67-1.13,1.09-1.77,2.96-2.89,4.17-1.2,1.3-2.63,2.35-4.13,3.28-1.13.7-2.47.73-3.43,1.67-2.26,2.2-4.12,4.2-4.79,7.4-.3,1.44-.57,4.26-1.53,5.39-.96,1.12-2.78,1.79-4.14,2.18-2.94.84-8.8,1.83-10.35,4.79-1.32,2.52.17,5.59-.43,8.24-.77,3.37-3.15,6.46-5.91,8.89l42.24-15.23,65.23,23.52Z"/>
  <path class="st0" d="M453.56,382.26l65.23-23.52v-12.41c-1.67-.88-2.14-1.05-4.12-1.13-1.91-.09-2.51-1.38-4.12-1.96-.61-.22-1.38.13-1.91-.22-.58-.39-.83-1.53-1.36-2.01-.82-.75-1.72-.91-2.4-1.97-1.15-1.8-1.43-3.07-3.78-3.5-2.49-.45-4.7-.82-7.05-2.01-2.03-1.03-3.23-2.05-5.48-2.08-1.45-.02-3.25-.28-4.66-.04-2.81.5-6.04,2.5-9.08,1.3-1.38-.54-2.25-2.44-3.59-3.17-1.2-.65-2.91-.74-4-1.67-1.04-.88-1.76-2.82-2.54-3.98-1.05-1.55-2.23-2.82-3.6-4.13-2.18-2.1-5.33-1.34-8.24-1.36-1.81-.01-3.01-.07-4.27,1.3-1.44,1.57-2.14,3.4-3.97,4.72-2.24,1.62-4.5,2.37-6.87,3.59-2.44,1.25-5.3,2.26-7.72,3.26-1.07.44-1.66.94-2.55,1.69-1.63,1.39-2.79,1.23-4.85,1.22-3.17-.02-6.74-.58-9.59.86-1.37.69-2.57,2.14-4.12,1.76-1.35-.33-2.52-1.62-3.59-2.43-1.45-1.1-3.02-2.27-4.65-2.96-1.42-.59-2.86-1.07-4.12-2.02-1.65-1.26-2.01-1.42-4.12-1.39-1.63.02-2.6-.46-4.12-.72-1.34-.24-3.7-.25-4.65.67-1.13,1.09-1.77,2.96-2.89,4.17-1.2,1.3-2.63,2.35-4.13,3.28-1.13.7-2.47.73-3.43,1.67-2.26,2.2-4.12,4.2-4.79,7.4-.3,1.44-.57,4.26-1.53,5.39-.96,1.12-2.78,1.79-4.14,2.18-2.94.84-8.8,1.83-10.35,4.79-1.32,2.52.17,5.59-.43,8.24-.77,3.37-3.15,6.46-5.91,8.89l42.24-15.23,65.23,23.52Z"/>
  <path class="st0" d="M453.56,382.26l65.23-23.52v-12.41c-1.67-.88-2.14-1.05-4.12-1.13-1.91-.09-2.51-1.38-4.12-1.96-.61-.22-1.38.13-1.91-.22-.58-.39-.83-1.53-1.36-2.01-.82-.75-1.72-.91-2.4-1.97-1.15-1.8-1.43-3.07-3.78-3.5-2.49-.45-4.7-.82-7.05-2.01-2.03-1.03-3.23-2.05-5.48-2.08-1.45-.02-3.25-.28-4.66-.04-2.81.5-6.04,2.5-9.08,1.3-1.38-.54-2.25-2.44-3.59-3.17-1.2-.65-2.91-.74-4-1.67-1.04-.88-1.76-2.82-2.54-3.98-1.05-1.55-2.23-2.82-3.6-4.13-2.18-2.1-5.33-1.34-8.24-1.36-1.81-.01-3.01-.07-4.27,1.3-1.44,1.57-2.14,3.4-3.97,4.72-2.24,1.62-4.5,2.37-6.87,3.59-2.44,1.25-5.3,2.26-7.72,3.26-1.07.44-1.66.94-2.55,1.69-1.63,1.39-2.79,1.23-4.85,1.22-3.17-.02-6.74-.58-9.59.86-1.37.69-2.57,2.14-4.12,1.76-1.35-.33-2.52-1.62-3.59-2.43-1.45-1.1-3.02-2.27-4.65-2.96-1.42-.59-2.86-1.07-4.12-2.02-1.65-1.26-2.01-1.42-4.12-1.39-1.63.02-2.6-.46-4.12-.72-1.34-.24-3.7-.25-4.65.67-1.13,1.09-1.77,2.96-2.89,4.17-1.2,1.3-2.63,2.35-4.13,3.28-1.13.7-2.47.73-3.43,1.67-2.26,2.2-4.12,4.2-4.79,7.4-.3,1.44-.57,4.26-1.53,5.39-.96,1.12-2.78,1.79-4.14,2.18-2.94.84-8.8,1.83-10.35,4.79-1.32,2.52.17,5.59-.43,8.24-.77,3.37-3.15,6.46-5.91,8.89l42.24-15.23,65.23,23.52Z"/>
  <path class="st0" d="M445.13,244.75c.85,2.2,1.88,4.44,2.91,6.56.59,1.21,1.2,1.92,1.6,3.26.27.9.34,1.86.64,2.74.58,1.73,1.47,1.71,2.76,2.53,1.28.81,2.25,2.42,3.09,3.64.35.51,1.23,1.5,1.43,2.06.26.73-.07,1.36.22,2.08.77,1.93,3.73,2.09,5.38,2.06,4.57-.08,8.73,1.42,13.2,1.37,2.42-.03,3.92-1.26,6.07-2.26,1.3-.6,2.58-2.17,4.09-1.93,1.75.28,3.46,2.42,4.78,3.5,1.88,1.53,4.04,2.85,5.55,4.81,2.02,2.61,2.69,4.72,6.14,5.51,1.46.33,2.75.26,3.3,2.02.22.71.07,1.36.27,2.08.29,1.06,1.17,1.91,1.77,2.78,1.55,2.27,2.24,4.72,2.21,7.55-.01,1.29.26,2.82.04,4.08-.32,1.85-1.68,3.5-1.97,5.34-.2,1.26.11,1.1.42,2.21.2.74-.05,1.37.1,2.08.37,1.82,2.01,1.38,3.49,1.36.6,0,1.52-.17,2.1-.04.62.15.68.61,1.3.76.8.19,1.8.15,2.78.08v-97.96l-65.23,23.52-7.66-2.76c-.26,1.96-.84,3.74-1.43,5.71-.65,2.2-.18,3.07.67,5.27Z"/>
  <path class="st3" d="M448.13,234.57l-2.24-.81c-.26,1.96-.84,3.74-1.43,5.71-.65,2.2-.18,3.07.67,5.27.85,2.2,1.88,4.44,2.91,6.56.59,1.21,1.2,1.92,1.6,3.26.27.9.34,1.86.64,2.74.58,1.73,1.47,1.71,2.76,2.53.18.12.35.28.52.42v-23.73h0l-5.42-1.96Z"/>
  <path class="st0" d="M453.56,382.26l65.23-23.52v-12.41c-1.67-.88-2.14-1.05-4.12-1.13-1.91-.09-2.51-1.38-4.12-1.96-.61-.22-1.38.13-1.91-.22-.58-.39-.83-1.53-1.36-2.01-.82-.75-1.72-.91-2.4-1.97-1.15-1.8-1.43-3.07-3.78-3.5-2.49-.45-4.7-.82-7.05-2.01-2.03-1.03-3.23-2.05-5.48-2.08-1.45-.02-3.25-.28-4.66-.04-2.81.5-6.04,2.5-9.08,1.3-1.38-.54-2.25-2.44-3.59-3.17-1.2-.65-2.91-.74-4-1.67-1.04-.88-1.76-2.82-2.54-3.98-1.05-1.55-2.23-2.82-3.6-4.13-2.18-2.1-5.33-1.34-8.24-1.36-1.81-.01-3.01-.07-4.27,1.3-1.44,1.57-2.14,3.4-3.97,4.72-2.24,1.62-4.5,2.37-6.87,3.59-2.44,1.25-5.3,2.26-7.72,3.26-1.07.44-1.66.94-2.55,1.69-1.63,1.39-2.79,1.23-4.85,1.22-3.17-.02-6.74-.58-9.59.86-1.37.69-2.57,2.14-4.12,1.76-1.35-.33-2.52-1.62-3.59-2.43-1.45-1.1-3.02-2.27-4.65-2.96-1.42-.59-2.86-1.07-4.12-2.02-1.65-1.26-2.01-1.42-4.12-1.39-1.63.02-2.6-.46-4.12-.72-1.34-.24-3.7-.25-4.65.67-1.13,1.09-1.77,2.96-2.89,4.17-1.2,1.3-2.63,2.35-4.13,3.28-1.13.7-2.47.73-3.43,1.67-2.26,2.2-4.12,4.2-4.79,7.4-.3,1.44-.57,4.26-1.53,5.39-.96,1.12-2.78,1.79-4.14,2.18-2.94.84-8.8,1.83-10.35,4.79-1.32,2.52.17,5.59-.43,8.24-.77,3.37-3.15,6.46-5.91,8.89l42.24-15.23,65.23,23.52Z"/>
  <path class="st0" d="M359.34,262.64c.29-1.4-.06-2.56,1.34-3.47,1.1-.71,2.27-.51,3.62-.5,1.63.01,2.6-.45,4.12-.72,1.3-.23,2.89.47,4.13-.07.91-.39,2.3-2.42,2.9-3.3.89-1.31,1.08-2.87,1.87-4.17.68-1.11,1.84-2.4,2.76-3.28.78-.75,1.99-.74,2.61-1.65.31-.45.16-1.24.29-1.77.14-.56.47-1.51.67-2.21.46-1.61,1.11-2.38,1.22-4.11.15-2.25.93-1.76,2.76-2.21,3.07-.76,6.36-.54,9.61-.54,2.49,0,5.87-.61,8.27-.04,1.09.26,2.06,1.41,3.43.62,1.12-.64,2.17-3.65,2.73-4.74.65-1.27.45-1.97.66-3.41.18-1.25.71-1.7,2.04-2.07,1.21-.34,2.56-.41,3.48-1.35l-29.54-10.65-65.23,23.52v46.91c2.62.81,5.59,1.29,8.27,1.34,3.96.08,7.6-.45,11.49-.69,1.43-.09,2.74-.45,3.75-1.34,1.22-1.06,1.35-2.76,1.89-4.17,1-2.6,1.23-5.51,4.08-6.87,1.35-.64,2.8-1.15,4.15-1.87,1.85-.99,2.02-1.64,2.06-3.62.01-.66-.1-1.42-.01-2.08.08-.64.46-1.06.55-1.51Z"/>
  <path class="st3" d="M397.26,234.64c2.49,0,5.87-.61,8.27-.04,1.09.26,2.06,1.41,3.43.62,1.12-.64,2.17-3.65,2.73-4.74.65-1.27.45-1.97.66-3.41.18-1.25.71-1.7,2.04-2.07,1.21-.34,2.56-.41,3.48-1.35l-29.54-10.65v22.05c2.87-.58,5.91-.42,8.93-.42Z"/>
  <path class="st0" d="M453.56,382.26l65.23-23.52v-12.41c-1.67-.88-2.14-1.05-4.12-1.13-1.91-.09-2.51-1.38-4.12-1.96-.61-.22-1.38.13-1.91-.22-.58-.39-.83-1.53-1.36-2.01-.82-.75-1.72-.91-2.4-1.97-1.15-1.8-1.43-3.07-3.78-3.5-2.49-.45-4.7-.82-7.05-2.01-2.03-1.03-3.23-2.05-5.48-2.08-1.45-.02-3.25-.28-4.66-.04-2.81.5-6.04,2.5-9.08,1.3-1.38-.54-2.25-2.44-3.59-3.17-1.2-.65-2.91-.74-4-1.67-1.04-.88-1.76-2.82-2.54-3.98-1.05-1.55-2.23-2.82-3.6-4.13-2.18-2.1-5.33-1.34-8.24-1.36-1.81-.01-3.01-.07-4.27,1.3-1.44,1.57-2.14,3.4-3.97,4.72-2.24,1.62-4.5,2.37-6.87,3.59-2.44,1.25-5.3,2.26-7.72,3.26-1.07.44-1.66.94-2.55,1.69-1.63,1.39-2.79,1.23-4.85,1.22-3.17-.02-6.74-.58-9.59.86-1.37.69-2.57,2.14-4.12,1.76-1.35-.33-2.52-1.62-3.59-2.43-1.45-1.1-3.02-2.27-4.65-2.96-1.42-.59-2.86-1.07-4.12-2.02-1.65-1.26-2.01-1.42-4.12-1.39-1.63.02-2.6-.46-4.12-.72-1.34-.24-3.7-.25-4.65.67-1.13,1.09-1.77,2.96-2.89,4.17-1.2,1.3-2.63,2.35-4.13,3.28-1.13.7-2.47.73-3.43,1.67-2.26,2.2-4.12,4.2-4.79,7.4-.3,1.44-.57,4.26-1.53,5.39-.96,1.12-2.78,1.79-4.14,2.18-2.94.84-8.8,1.83-10.35,4.79-1.32,2.52.17,5.59-.43,8.24-.77,3.37-3.15,6.46-5.91,8.89l42.24-15.23,65.23,23.52Z"/>
  <path class="st0" d="M412.36,271.03c1.33-.15.64-1.37.11-2.06-1.81-2.33-5.62-2.09-8.16-2.07-4.82.04-10.76.12-14.65,3.45-2.38,2.03-1.8,3.37-1.98,6.14-.12,1.89-.76,2.68-2.21,3.98-1.96,1.77-4.05,3.46-6.07,5.16-1.33,1.12-2.19,2.47-3.42,3.62-1.09,1.02-2.59,1.76-3.47,3.02-.75,1.08-1.38,2.49-2.04,3.64-.49.85-1.72,2.79-1.27,3.78.51.2.93.52,1.27.96.47.71.93,1.42,1.39,2.13,1.23,1.9,2.03,3.39,4.24,4.16,4.77,1.67,9.59-.79,14.36-.92,5.78-.16,11.95.82,17.63-.14,2.68-.45,5.74-1.29,7.71-3.25.99-.98,2.12-2.27,2.8-3.48.7-1.26.56-2.9,1.31-4.15.48-.81,1.36-1.35,2.04-2.15,1.1-1.28,3.16-2.28,3.51-3.98.19-.91-.06-1.57-.53-2.25-.26-.26-.56-.47-.89-.64-.58-.62-.8-1.29-1.33-1.94-1.3-1.6-2.82-1.98-3.64-3.93-.43-1.03-4.89-9.3-6.7-9.09Z"/>
  <path class="st3" d="M424.03,286c-.58-.62-.8-1.29-1.33-1.94-1.3-1.6-2.82-1.98-3.64-3.93-.43-1.03-4.89-9.31-6.7-9.09,1.33-.15.64-1.37.11-2.06-1.81-2.33-5.62-2.09-8.16-2.07-4.82.04-10.76.12-14.65,3.45-.63.54-1.04,1.02-1.33,1.5v34.38c.71-.1,1.42-.18,2.12-.2,5.78-.16,11.95.82,17.63-.14,2.68-.45,5.74-1.29,7.71-3.25.99-.98,2.12-2.27,2.8-3.48.7-1.27.56-2.9,1.31-4.15.48-.81,1.36-1.35,2.04-2.15,1.1-1.28,3.16-2.28,3.51-3.98.19-.91-.06-1.57-.53-2.25-.26-.26-.56-.47-.89-.64Z"/>
  <path class="st3" d="M453.56,382.26v-63.87c-.23,0-.46.02-.69.01-1.81-.01-3.01-.07-4.27,1.3-1.44,1.57-2.14,3.4-3.97,4.72-2.24,1.62-4.5,2.37-6.87,3.59-2.44,1.25-5.3,2.26-7.72,3.26-1.07.44-1.66.94-2.55,1.69-1.63,1.39-2.79,1.23-4.85,1.22-3.17-.02-6.74-.58-9.59.86-1.37.69-2.57,2.14-4.12,1.76-1.35-.33-2.52-1.62-3.59-2.43-1.45-1.1-3.02-2.27-4.65-2.96-1.42-.59-2.86-1.07-4.12-2.02-1.65-1.26-2.01-1.42-4.12-1.39-1.63.02-2.6-.46-4.12-.72v31.45l65.23,23.52h0Z"/>
  <path class="st5" d="M503.87,202.01c0,3.82-1.1,7.67-3.35,11.03l-16.51,24.69-16.51-24.69c-5.27-7.88-4.23-18.38,2.47-25.08,3.88-3.88,8.96-5.82,14.04-5.82s10.17,1.94,14.04,5.82c3.84,3.84,5.82,8.92,5.82,14.05Z"/>
  <path class="st6" d="M484.01,239.79l-17.46-26.12c-1.37-2.04-2.36-4.29-2.94-6.66-.57-2.31-.74-4.69-.5-7.07.23-2.38.86-4.68,1.87-6.83,1.04-2.22,2.44-4.22,4.18-5.96,2-2,4.34-3.56,6.95-4.61,2.52-1.02,5.18-1.54,7.9-1.54s5.39.52,7.9,1.54c2.61,1.06,4.94,2.61,6.95,4.61,1.99,1.99,3.54,4.32,4.6,6.92,1.03,2.53,1.55,5.2,1.55,7.94,0,4.17-1.23,8.2-3.54,11.67l-17.46,26.12ZM484.01,183.29c-2.43,0-4.8.46-7.04,1.37-2.32.94-4.4,2.32-6.19,4.11-1.55,1.55-2.8,3.34-3.73,5.31-.9,1.92-1.46,3.97-1.67,6.09-.21,2.12-.06,4.24.45,6.3.52,2.12,1.4,4.11,2.62,5.94l15.56,23.27,15.56-23.27c2.07-3.09,3.16-6.68,3.16-10.4,0-2.44-.47-4.82-1.38-7.08-.94-2.31-2.32-4.39-4.1-6.16-1.79-1.79-3.87-3.17-6.19-4.11-2.24-.91-4.61-1.37-7.04-1.37Z"/>
  <circle class="st6" cx="484.01" cy="202" r="7.71"/>
  <path class="st2" d="M484.01,210.86c4.88,0,8.86-3.97,8.86-8.86s-3.97-8.86-8.86-8.86-8.86,3.97-8.86,8.86,3.97,8.86,8.86,8.86ZM484.01,195.44c3.62,0,6.57,2.95,6.57,6.57s-2.95,6.57-6.57,6.57-6.57-2.95-6.57-6.57,2.95-6.57,6.57-6.57Z"/>
  <g>
    <path class="st2" d="M484.94,250.55c1.4,0,2.64,1.22,2.91,2.98.02.16.59,3.86,1.18,9.91.2,2.01-.96,3.84-2.59,4.08-1.65.24-3.1-1.19-3.3-3.2-.56-5.78-1.11-9.38-1.12-9.42-.31-1.99.75-3.91,2.36-4.29.19-.04.37-.07.56-.07Z"/>
    <path class="st2" d="M382.78,223.66c3.83,0,7.36.64,10.51,1.9,1.56.63,2.41,2.69,1.91,4.62-.51,1.92-2.18,2.98-3.74,2.35-2.55-1.02-5.47-1.55-8.68-1.55-1.93,0-3.8.12-5.55.35-1.65.23-3.09-1.24-3.27-3.25-.18-2.01,1-3.82,2.63-4.04,1.97-.26,4.05-.4,6.19-.4ZM362.14,230.03c.97,0,1.92.59,2.49,1.68.89,1.7.49,3.97-.88,5.07-3.85,3.08-6.79,7.48-8.73,13.08-.65,1.86-2.39,2.73-3.89,1.92-1.51-.8-2.2-2.95-1.56-4.81,2.42-6.97,6.11-12.47,10.97-16.35.5-.4,1.05-.59,1.61-.59ZM404.55,236.79c.94,0,1.87.55,2.44,1.58,2.76,4.94,4.89,11.14,6.51,18.93.41,1.96-.55,3.96-2.14,4.46-1.59.5-3.2-.68-3.61-2.64-1.44-6.94-3.29-12.37-5.65-16.59-.93-1.67-.59-3.95.75-5.1.52-.44,1.1-.65,1.68-.65ZM349.11,263.65s.09,0,.13,0c1.64.09,2.9,1.8,2.83,3.82-.04,1.13-.06,2.27-.06,3.41,0,4.71.33,9.83.99,15.23.24,2-.87,3.87-2.49,4.17-1.61.31-3.13-1.08-3.37-3.08-.7-5.76-1.06-11.25-1.06-16.32,0-1.25.02-2.49.06-3.74.07-1.97,1.38-3.5,2.96-3.5ZM413.36,273.7c1.48,0,2.76,1.37,2.94,3.23.57,5.88,1.01,12.02,1.44,17.97l.11,1.51c.14,2.02-1.06,3.8-2.69,3.97-1.61.18-3.07-1.31-3.22-3.33l-.11-1.52c-.42-5.89-.86-11.97-1.42-17.74-.19-2.01.96-3.84,2.59-4.08.12-.02.24-.03.36-.03ZM487.28,279.56c1.59,0,2.91,1.56,2.96,3.55.06,2.1.09,4.26.09,6.47,0,4.58-.13,9.07-.4,13.34-.13,2.02-1.58,3.53-3.18,3.38-1.63-.15-2.86-1.92-2.73-3.93.25-4.09.38-8.39.38-12.78,0-2.13-.03-4.21-.08-6.23-.05-2.02,1.23-3.72,2.87-3.78.03,0,.07,0,.1,0ZM416.52,312.41c1.46,0,2.74,1.34,2.94,3.18.8,7.38,1.77,13.43,2.98,18.5.46,1.94-.43,3.98-2,4.55-1.56.57-3.22-.53-3.68-2.48-1.3-5.43-2.34-11.84-3.17-19.61-.22-2.01.92-3.85,2.55-4.12.13-.02.26-.03.4-.03ZM484.64,318.16c.23,0,.46.03.69.1,1.59.47,2.58,2.45,2.2,4.42-1.39,7.17-3.3,13.59-5.69,19.06-.78,1.78-2.58,2.45-4.02,1.48-1.44-.96-1.98-3.19-1.2-4.97,2.14-4.91,3.87-10.73,5.14-17.28.32-1.68,1.54-2.81,2.88-2.81ZM426.49,348.71c.85,0,1.7.45,2.29,1.33,2.99,4.48,6.72,7.31,11.39,8.65,1.59.46,2.59,2.43,2.21,4.4-.37,1.97-1.96,3.19-3.56,2.74-5.9-1.7-10.81-5.44-14.61-11.12-1.04-1.56-.87-3.87.4-5.16.55-.56,1.22-.84,1.89-.84ZM469.26,351.13c.89,0,1.78.5,2.36,1.45.99,1.61.74,3.91-.56,5.14-4.45,4.19-9.67,6.98-15.52,8.31-1.61.37-3.16-.95-3.45-2.95-.3-1.99.77-3.9,2.38-4.27,4.92-1.12,9.29-3.45,12.99-6.93.54-.5,1.17-.75,1.8-.75Z"/>
    <path class="st2" d="M353.63,302.7c1.28,0,2.47,1.04,2.85,2.64,1.29,5.46,2.37,8.95,2.38,8.98.59,1.89-.17,4.01-1.7,4.74-1.53.73-3.24-.21-3.83-2.09-.05-.15-1.18-3.79-2.55-9.58-.46-1.94.45-3.98,2.02-4.55.28-.1.56-.15.83-.15Z"/>
  </g>
</svg>