<?xml version="1.0" encoding="UTF-8"?>
<svg id="Layer_1" xmlns="http://www.w3.org/2000/svg" version="1.1" viewBox="0 0 841.89 595.28">
  <!-- Generator: Adobe Illustrator 29.7.1, SVG Export Plug-In . SVG Version: 2.1.1 Build 8)  -->
  <defs>
    <style>
      .st0 {
        fill: #cccbca;
      }

      .st1 {
        fill: #0a2c4b;
      }

      .st2 {
        fill: #989798;
      }

      .st3, .st4 {
        fill: #fcd01a;
      }

      .st5 {
        fill: #ee2e24;
        stroke: #0a2c4b;
        stroke-width: 5px;
      }

      .st5, .st4 {
        stroke-miterlimit: 10;
      }

      .st4 {
        stroke: #fcd01a;
        stroke-width: 2px;
      }

      .st6 {
        fill: #d1d3d1;
      }

      .st7 {
        fill: #fbfcfc;
      }
    </style>
  </defs>
  <circle class="st1" cx="420.94" cy="297.64" r="219.12"/>
  <path class="st3" d="M490.75,417.07h-139.62c-9.47,0-17.14-7.77-17.14-17.35v-189.11c0-9.58,7.67-17.35,17.14-17.35h139.62c9.47,0,17.14,7.77,17.14,17.35v189.11c0,9.58-7.67,17.35-17.14,17.35Z"/>
  <polygon class="st0" points="480.94 217.24 360.95 217.24 363.74 213.56 363.74 202.14 478.15 202.14 478.15 213.56 480.94 217.24"/>
  <polygon class="st2" points="478.15 213.56 478.15 207.6 363.74 207.6 363.74 213.56 360.95 217.24 480.94 217.24 478.15 213.56"/>
  <polygon class="st2" points="478.15 208.37 363.74 208.37 363.74 213.56 360.95 217.24 480.94 217.24 478.15 213.56 478.15 208.37"/>
  <rect class="st6" x="360.95" y="213.56" width="119.99" height="3.68"/>
  <path class="st0" d="M472.85,191.79c-1.61-3.15-4.85-5.13-8.39-5.13h-34.84c-.13-4.69-3.96-8.45-8.67-8.45s-8.55,3.76-8.67,8.45h-35.22c-3.64,0-6.95,2.09-8.52,5.38l-4.8,10.1h114.42l-5.3-10.35ZM420.94,191.66c-2.64,0-4.77-2.14-4.77-4.77s2.14-4.77,4.77-4.77,4.77,2.14,4.77,4.77-2.14,4.77-4.77,4.77Z"/>
  <polygon class="st2" points="364.11 201.36 363.74 202.14 478.15 202.14 477.76 201.36 364.11 201.36"/>
  <path class="st2" d="M420.94,191.66c-2.54,0-4.61-1.99-4.76-4.49,0,.09-.01.19-.01.28,0,2.64,2.14,4.77,4.77,4.77s4.77-2.14,4.77-4.77c0-.1,0-.19-.01-.28-.15,2.5-2.22,4.49-4.76,4.49Z"/>
  <rect class="st7" x="353.06" y="226.02" width="135.77" height="177.31" rx="3.57" ry="3.57"/>
  <g>
    <rect class="st1" x="362.14" y="251.75" width="117.6" height="3.27"/>
    <rect class="st1" x="362.14" y="261.1" width="117.6" height="3.27"/>
    <rect class="st1" x="362.14" y="270.45" width="80.45" height="3.27"/>
    <rect class="st1" x="362.14" y="291.56" width="117.6" height="3.27"/>
    <rect class="st1" x="362.14" y="300.91" width="117.6" height="3.27"/>
    <rect class="st1" x="362.14" y="310.26" width="106.33" height="3.27"/>
    <rect class="st1" x="362.14" y="331.38" width="117.6" height="3.27"/>
    <rect class="st1" x="362.14" y="340.73" width="117.6" height="3.27"/>
    <rect class="st1" x="362.14" y="371.19" width="117.6" height="3.27"/>
    <rect class="st1" x="362.14" y="380.54" width="117.6" height="3.27"/>
    <rect class="st1" x="362.14" y="389.89" width="38.05" height="3.27"/>
    <rect class="st1" x="362.14" y="235.78" width="117.6" height="9.37"/>
  </g>
  <circle class="st5" cx="490.83" cy="389.89" r="36.34"/>
  <path class="st3" d="M510.61,388.28v3.23c0,1.91-1.55,3.46-3.46,3.46h-11.01v10.67c0,1.91-1.55,3.47-3.47,3.47h-3.81c-1.91,0-3.46-1.55-3.46-3.47v-10.67h-10.93c-1.91,0-3.46-1.55-3.46-3.46v-3.23c0-1.91,1.55-3.46,3.46-3.46h10.93v-10.67c0-1.91,1.55-3.47,3.46-3.47h3.81c1.91,0,3.47,1.55,3.47,3.47v10.67h11.01c1.91,0,3.46,1.55,3.46,3.46Z"/>
  <path class="st4" d="M420.94,123.84c-95.98,0-173.79,77.81-173.79,173.79s77.81,173.79,173.79,173.79,173.79-77.81,173.79-173.79-77.81-173.79-173.79-173.79ZM420.94,468.7c-94.47,0-171.06-76.59-171.06-171.06s76.59-171.06,171.06-171.06,171.06,76.59,171.06,171.06-76.59,171.06-171.06,171.06Z"/>
</svg>