<?xml version="1.0" encoding="UTF-8"?>
<svg id="Layer_1" xmlns="http://www.w3.org/2000/svg" version="1.1" viewBox="0 0 841.89 595.28">
  <!-- Generator: Adobe Illustrator 29.7.1, SVG Export Plug-In . SVG Version: 2.1.1 Build 8)  -->
  <defs>
    <style>
      .st0 {
        fill: #0a2c4b;
      }

      .st1 {
        fill: #ee2e24;
      }

      .st2, .st3 {
        fill: #fcd01a;
      }

      .st3 {
        stroke: #fcd01a;
        stroke-miterlimit: 10;
        stroke-width: 2px;
      }
    </style>
  </defs>
  <circle class="st0" cx="420.94" cy="297.64" r="219.12"/>
  <circle class="st0" cx="420.94" cy="297.64" r="173.79"/>
  <path class="st3" d="M420.94,123.84c-95.98,0-173.79,77.81-173.79,173.79s77.81,173.79,173.79,173.79,173.79-77.81,173.79-173.79-77.81-173.79-173.79-173.79ZM420.94,468.7c-94.47,0-171.06-76.59-171.06-171.06s76.59-171.06,171.06-171.06,171.06,76.59,171.06,171.06-76.59,171.06-171.06,171.06Z"/>
  <path class="st2" d="M397.78,278v-11.41c0-6.19,2.41-12.01,6.79-16.38,4.38-4.38,10.19-6.79,16.38-6.79s12.01,2.41,16.38,6.79c4.38,4.38,6.79,10.19,6.79,16.38v11.41c0,6.19-2.41,12.01-6.79,16.38-4.38,4.38-10.19,6.79-16.38,6.79s-12.01-2.41-16.38-6.79c-4.38-4.38-6.79-10.19-6.79-16.38ZM465.54,342.89c-1.4,2.37-3.63,4.08-6.29,4.81-12.39,3.43-27.67,4.16-38.31,4.16s-25.92-.72-38.31-4.16c-2.65-.74-4.89-2.44-6.29-4.81-1.4-2.37-1.82-5.15-1.19-7.83l3.62-15.26c.86-3.62,3.25-6.68,6.55-8.39l20.43-10.6c4.46,2.98,9.7,4.58,15.18,4.58s10.72-1.6,15.18-4.58l20.43,10.6c3.3,1.71,5.69,4.77,6.55,8.39l3.62,15.26c.64,2.68.21,5.46-1.19,7.83Z"/>
  <g>
    <path class="st1" d="M530.64,269.18c-2.31-8.98-5.72-17.67-10.15-25.84-8.7-16.04-21.29-29.94-36.41-40.19-2.76-1.87-6.53-1.15-8.4,1.61-1.87,2.76-1.15,6.53,1.61,8.4,13.53,9.17,24.79,21.6,32.57,35.94,3.96,7.3,7.01,15.06,9.07,23.08,2.12,8.27,3.2,16.83,3.2,25.45,0,13.77-2.7,27.13-8.01,39.69-5.14,12.14-12.49,23.05-21.86,32.42-9.37,9.37-20.28,16.72-32.42,21.86-12.57,5.32-25.92,8.01-39.69,8.01v-6.48c0-3.37-3.82-5.33-6.56-3.36l-17.42,12.53c-2.3,1.65-2.3,5.07,0,6.72l17.42,12.53c2.74,1.97,6.56.01,6.56-3.36v-6.48c15.4,0,30.34-3.02,44.41-8.97,13.59-5.75,25.78-13.97,36.26-24.45,10.47-10.47,18.7-22.67,24.45-36.26,5.95-14.07,8.97-29.01,8.97-44.41,0-9.64-1.2-19.21-3.58-28.46Z"/>
    <path class="st1" d="M349.64,225.52c9.37-9.37,20.28-16.72,32.42-21.86,12.57-5.32,25.92-8.01,39.69-8.01v6.48c0,3.37,3.82,5.33,6.56,3.36l17.42-12.53c2.3-1.65,2.3-5.07,0-6.72l-17.42-12.53c-2.74-1.97-6.56-.01-6.56,3.36v6.48c-15.4,0-30.34,3.02-44.41,8.97-13.59,5.75-25.78,13.97-36.26,24.45-10.47,10.47-18.7,22.67-24.45,36.26-5.95,14.07-8.97,29.01-8.97,44.41,0,9.64,1.2,19.21,3.58,28.46,2.31,8.98,5.72,17.67,10.15,25.84,8.7,16.04,21.29,29.94,36.41,40.19,1.04.7,2.22,1.04,3.39,1.04,1.94,0,3.84-.93,5.01-2.65,1.87-2.76,1.15-6.53-1.61-8.4-13.53-9.17-24.79-21.6-32.57-35.94-3.96-7.3-7.01-15.06-9.07-23.08-2.12-8.27-3.2-16.83-3.2-25.45,0-13.77,2.7-27.13,8.01-39.69,5.14-12.14,12.49-23.05,21.86-32.42Z"/>
  </g>
</svg>