<?xml version="1.0" encoding="UTF-8"?>
<svg id="Layer_1" xmlns="http://www.w3.org/2000/svg" version="1.1" viewBox="0 0 841.89 595.28">
  <!-- Generator: Adobe Illustrator 29.7.1, SVG Export Plug-In . SVG Version: 2.1.1 Build 8)  -->
  <defs>
    <style>
      .st0 {
        fill: #0a2c4b;
      }

      .st1 {
        fill: #ee2e24;
        stroke: #0a2c4b;
        stroke-width: 7px;
      }

      .st1, .st2 {
        stroke-miterlimit: 10;
      }

      .st2 {
        fill: #fcd01a;
        stroke: #fcd01a;
        stroke-width: 2px;
      }
    </style>
  </defs>
  <g>
    <circle class="st0" cx="420.94" cy="297.64" r="219.12"/>
    <circle class="st0" cx="420.94" cy="297.64" r="173.79"/>
    <path class="st2" d="M420.94,123.84c-95.98,0-173.79,77.81-173.79,173.79s77.81,173.79,173.79,173.79,173.79-77.81,173.79-173.79-77.81-173.79-173.79-173.79ZM420.94,468.7c-94.47,0-171.06-76.59-171.06-171.06s76.59-171.06,171.06-171.06,171.06,76.59,171.06,171.06-76.59,171.06-171.06,171.06Z"/>
  </g>
  <g>
    <polygon class="st2" points="491.91 226.11 491.91 247.64 326.82 247.64 326.82 243.91 326.82 226.11 326.82 204.58 373.33 204.58 379.07 226.11 491.91 226.11"/>
    <rect class="st2" x="326.82" y="247.64" width="165.09" height="122.03"/>
    <path class="st0" d="M491.9,222.38h-109.97l-5.15-18.96c-.3-1.44-1.72-2.58-3.45-2.58h-46.52c-2.02,0-3.75,1.72-3.75,3.73v164.82c0,2.01,1.72,3.73,3.75,3.73h165.08c1.72,0,3.45-1.72,3.75-3.45v-143.56c0-2.01-1.72-3.73-3.75-3.73ZM330.27,208.02h40.18l5.17,18.96c.3,1.42,1.72,2.59,3.45,2.59h109.11v14.07h-157.91v-35.61ZM488.18,365.94h-157.91v-114.86h157.91v114.86Z"/>
    <path class="st0" d="M394.86,355.31h-50.25c-2.01,0-3.73-1.72-3.73-3.73v-57.42c0-2.01,1.72-3.73,3.73-3.73s3.73,1.72,3.73,3.73v53.98h46.8c2.01,0,3.73,1.72,3.73,3.73-.29,1.72-2.01,3.45-4.02,3.45Z"/>
    <circle class="st1" cx="488.59" cy="348.21" r="46.23"/>
    <path class="st2" d="M479.46,365.18l-11.89-11.89c-1.04-1.04-1.04-2.73,0-3.78l3.8-3.8c1.04-1.04,2.73-1.04,3.78,0l6.2,6.2,20.67-20.67c1.04-1.04,2.73-1.04,3.78,0l3.8,3.8c1.04,1.04,1.04,2.73,0,3.78l-26.37,26.37c-1.04,1.04-2.73,1.04-3.78,0Z"/>
  </g>
</svg>