<?xml version="1.0" encoding="UTF-8"?>
<svg id="Layer_1" xmlns="http://www.w3.org/2000/svg" version="1.1" viewBox="0 0 841.89 595.28">
  <!-- Generator: Adobe Illustrator 29.7.1, SVG Export Plug-In . SVG Version: 2.1.1 Build 8)  -->
  <defs>
    <style>
      .st0 {
        fill: #62c3a9;
      }

      .st1 {
        fill: #0a2c4b;
      }

      .st2 {
        fill: #fbd01c;
      }

      .st3 {
        fill: #ee2e24;
      }

      .st4 {
        fill: #fcd01a;
        stroke: #fcd01a;
        stroke-miterlimit: 10;
        stroke-width: 2px;
      }
    </style>
  </defs>
  <g>
    <circle class="st1" cx="421.05" cy="297.64" r="219.12"/>
    <circle class="st1" cx="421.05" cy="297.64" r="173.79"/>
    <path class="st4" d="M421.05,123.84c-95.98,0-173.79,77.81-173.79,173.79s77.81,173.79,173.79,173.79,173.79-77.81,173.79-173.79-77.81-173.79-173.79-173.79ZM421.05,468.7c-94.47,0-171.06-76.59-171.06-171.06s76.59-171.06,171.06-171.06,171.06,76.59,171.06,171.06-76.59,171.06-171.06,171.06Z"/>
  </g>
  <path class="st0" d="M453.52,231.33c4.15,4.65,7.08,10.39,8.72,17.07,1.55,6.34,1.89,13.39,1.03,20.96-.32,2.8-.8,5.97-1.49,9.32,5.36,5.19,12.38,8.49,21.51,8.48,25.32,0,34.43-25.36,36.82-46.19,2.94-25.66-9.19-44.97-36.82-44.97-21.68,0-33.82,11.9-36.62,29.42,2.54,1.68,4.83,3.64,6.85,5.9h0ZM453.52,231.33"/>
  <path class="st0" d="M551.79,347.54c-.27-8.08-1.22-16.2-2.63-24.16-1.71-9.64-3.88-23.77-12.3-30.05-4.87-3.63-11.17-4.82-16.74-7.01-2.71-1.07-5.14-2.13-7.42-3.33-7.69,8.44-17.73,12.85-29.41,12.85-9.1,0-17.18-2.69-23.95-7.85-1.56,4.82-3.65,9.67-6.44,14.11,2.45,1.47,5.1,2.65,8.32,3.92,1.43.56,2.99,1.07,4.65,1.61,4.48,1.46,9.55,3.12,14.11,6.53,10.83,8.08,13.5,23.24,15.45,34.3l.2,1.19c1.01,5.67,1.75,11.25,2.23,16.66,8.65-.89,17.24-2.4,25.68-4.18,6.82-1.44,13.59-3.19,20.14-5.56,5.24-1.89,8.33-2.77,8.11-9.03h0ZM551.79,347.54"/>
  <path class="st3" d="M358.6,287.17c9.13,0,16.15-3.29,21.51-8.48-.69-3.35-1.16-6.53-1.49-9.32-.86-7.56-.52-14.62,1.03-20.96,1.63-6.68,4.57-12.42,8.72-17.07,2.02-2.26,4.32-4.23,6.85-5.9-2.8-17.52-14.94-29.42-36.62-29.42-27.62,0-39.76,19.31-36.82,44.97,2.39,20.83,11.5,46.18,36.82,46.19h0ZM358.6,287.17"/>
  <path class="st3" d="M361.92,314.16c4.56-3.4,9.63-5.07,14.11-6.52,1.66-.54,3.22-1.05,4.65-1.61,3.22-1.27,5.87-2.44,8.32-3.92-2.79-4.43-4.88-9.29-6.43-14.11-6.77,5.16-14.86,7.85-23.95,7.85-11.68,0-21.72-4.41-29.41-12.85-2.28,1.2-4.71,2.26-7.42,3.33-5.57,2.19-11.87,3.38-16.74,7.01-8.42,6.28-10.59,20.41-12.3,30.05-1.41,7.96-2.36,16.08-2.64,24.16-.21,6.26,2.88,7.14,8.11,9.03,6.55,2.37,13.33,4.12,20.14,5.56,8.43,1.78,17.03,3.29,25.68,4.18.47-5.42,1.21-10.99,2.22-16.66l.21-1.19c1.95-11.06,4.61-26.21,15.45-34.3h0ZM361.92,314.16"/>
  <path class="st2" d="M491.23,350.41l-.21-1.2c-1.82-10.34-4.32-24.52-13.77-31.57-3.99-2.98-8.5-4.45-12.86-5.88-1.72-.56-3.34-1.09-4.89-1.7-2.25-.88-4.28-1.75-6.19-2.71-7.98,10.66-19.06,16.28-32.23,16.28-13.17,0-24.24-5.61-32.23-16.28-1.9.96-3.94,1.83-6.19,2.71-1.55.61-3.17,1.14-4.88,1.7-4.36,1.43-8.88,2.9-12.87,5.88-9.45,7.05-11.95,21.23-13.76,31.58l-.21,1.2c-1.52,8.59-2.43,16.92-2.7,24.76-.31,9.2,5.4,11.26,10.44,13.06l.55.2c6.06,2.19,12.83,4.06,20.72,5.73,16.1,3.4,29.16,5.02,41.11,5.1h.06c11.95-.08,25.02-1.71,41.11-5.1,7.89-1.67,14.66-3.54,20.72-5.73l.54-.19c5.04-1.81,10.76-3.86,10.44-13.07-.27-7.86-1.18-16.2-2.7-24.77h0ZM491.23,350.41"/>
  <path class="st2" d="M384.6,270.7c2.39,20.83,11.5,46.19,36.82,46.19s34.44-25.36,36.83-46.19c2.94-25.66-9.2-44.97-36.83-44.97s-39.76,19.31-36.82,44.97h0ZM384.6,270.7"/>
</svg>