<?xml version="1.0" encoding="UTF-8"?>
<svg id="Layer_1" xmlns="http://www.w3.org/2000/svg" version="1.1" viewBox="0 0 841.89 595.28">
  <!-- Generator: Adobe Illustrator 29.7.1, SVG Export Plug-In . SVG Version: 2.1.1 Build 8)  -->
  <defs>
    <style>
      .st0 {
        fill: #cccbca;
      }

      .st1 {
        fill: #0a2c4b;
      }

      .st2 {
        fill: #989798;
      }

      .st3 {
        fill: #ee2e24;
      }

      .st4, .st5 {
        fill: #fcd01a;
      }

      .st5 {
        stroke: #fcd01a;
        stroke-miterlimit: 10;
        stroke-width: 2px;
      }

      .st6 {
        fill: #d1d3d1;
      }

      .st7 {
        fill: #fbfcfc;
      }
    </style>
  </defs>
  <circle class="st1" cx="420.94" cy="297.64" r="219.12"/>
  <path class="st4" d="M490.75,417.07h-139.62c-9.47,0-17.14-7.77-17.14-17.35v-189.11c0-9.58,7.67-17.35,17.14-17.35h139.62c9.47,0,17.14,7.77,17.14,17.35v189.11c0,9.58-7.67,17.35-17.14,17.35Z"/>
  <polygon class="st0" points="480.94 217.24 360.95 217.24 363.74 213.56 363.74 202.14 478.15 202.14 478.15 213.56 480.94 217.24"/>
  <polygon class="st2" points="478.15 213.56 478.15 207.6 363.74 207.6 363.74 213.56 360.95 217.24 480.94 217.24 478.15 213.56"/>
  <polygon class="st2" points="478.15 208.37 363.74 208.37 363.74 213.56 360.95 217.24 480.94 217.24 478.15 213.56 478.15 208.37"/>
  <rect class="st6" x="360.95" y="213.56" width="119.99" height="3.68"/>
  <path class="st0" d="M472.85,191.79c-1.61-3.15-4.85-5.13-8.39-5.13h-34.84c-.13-4.69-3.96-8.45-8.67-8.45s-8.55,3.76-8.67,8.45h-35.22c-3.64,0-6.95,2.09-8.52,5.38l-4.8,10.1h114.42l-5.3-10.35ZM420.94,191.66c-2.64,0-4.77-2.14-4.77-4.77s2.14-4.77,4.77-4.77,4.77,2.14,4.77,4.77-2.14,4.77-4.77,4.77Z"/>
  <polygon class="st2" points="364.11 201.36 363.74 202.14 478.15 202.14 477.76 201.36 364.11 201.36"/>
  <rect class="st7" x="353.06" y="226.02" width="135.77" height="177.31" rx="3.57" ry="3.57"/>
  <g>
    <rect class="st1" x="392.57" y="251.75" width="87.17" height="3.27"/>
    <rect class="st1" x="392.57" y="261.1" width="87.17" height="3.27"/>
    <rect class="st1" x="392.57" y="270.45" width="59.63" height="3.27"/>
    <rect class="st1" x="392.57" y="291.56" width="87.17" height="3.27"/>
    <rect class="st1" x="392.57" y="300.91" width="87.17" height="3.27"/>
    <rect class="st1" x="392.57" y="310.26" width="78.82" height="3.27"/>
    <rect class="st1" x="392.57" y="331.38" width="87.17" height="3.27"/>
    <rect class="st1" x="392.57" y="340.73" width="87.17" height="3.27"/>
    <rect class="st1" x="392.57" y="371.19" width="87.17" height="3.27"/>
    <rect class="st1" x="392.57" y="380.54" width="87.17" height="3.27"/>
    <rect class="st1" x="392.57" y="389.89" width="28.2" height="3.27"/>
    <rect class="st1" x="392.57" y="235.78" width="87.17" height="9.37"/>
  </g>
  <path class="st3" d="M366.55,272.65l-7.66-7.66c-.67-.67-.67-1.76,0-2.43l2.45-2.45c.67-.67,1.76-.67,2.43,0l3.99,3.99,13.32-13.32c.67-.67,1.76-.67,2.43,0l2.45,2.45c.67.67.67,1.76,0,2.43l-16.99,16.99c-.67.67-1.76.67-2.43,0Z"/>
  <path class="st3" d="M366.55,313.48l-7.66-7.66c-.67-.67-.67-1.76,0-2.43l2.45-2.45c.67-.67,1.76-.67,2.43,0l3.99,3.99,13.32-13.32c.67-.67,1.76-.67,2.43,0l2.45,2.45c.67.67.67,1.76,0,2.43l-16.99,16.99c-.67.67-1.76.67-2.43,0Z"/>
  <path class="st3" d="M366.55,353.67l-7.66-7.66c-.67-.67-.67-1.76,0-2.43l2.45-2.45c.67-.67,1.76-.67,2.43,0l3.99,3.99,13.32-13.32c.67-.67,1.76-.67,2.43,0l2.45,2.45c.67.67.67,1.76,0,2.43l-16.99,16.99c-.67.67-1.76.67-2.43,0Z"/>
  <path class="st3" d="M366.55,393.48l-7.66-7.66c-.67-.67-.67-1.76,0-2.43l2.45-2.45c.67-.67,1.76-.67,2.43,0l3.99,3.99,13.32-13.32c.67-.67,1.76-.67,2.43,0l2.45,2.45c.67.67.67,1.76,0,2.43l-16.99,16.99c-.67.67-1.76.67-2.43,0Z"/>
  <path class="st5" d="M420.94,123.84c-95.98,0-173.79,77.81-173.79,173.79s77.81,173.79,173.79,173.79,173.79-77.81,173.79-173.79-77.81-173.79-173.79-173.79ZM420.94,468.7c-94.47,0-171.06-76.59-171.06-171.06s76.59-171.06,171.06-171.06,171.06,76.59,171.06,171.06-76.59,171.06-171.06,171.06Z"/>
</svg>