<?xml version="1.0" encoding="UTF-8"?>
<svg id="Layer_1" xmlns="http://www.w3.org/2000/svg" version="1.1" viewBox="0 0 841.89 595.28">
  <!-- Generator: Adobe Illustrator 29.7.1, SVG Export Plug-In . SVG Version: 2.1.1 Build 8)  -->
  <defs>
    <style>
      .st0 {
        fill: #0a2c4b;
      }

      .st1 {
        fill: #ee2e24;
      }

      .st2, .st3 {
        fill: #fcd01a;
      }

      .st3 {
        stroke: #fcd01a;
        stroke-miterlimit: 10;
        stroke-width: 2px;
      }
    </style>
  </defs>
  <g>
    <circle class="st0" cx="420.94" cy="297.64" r="219.12"/>
    <circle class="st0" cx="420.94" cy="297.64" r="173.79"/>
    <path class="st3" d="M420.94,123.84c-95.98,0-173.79,77.81-173.79,173.79s77.81,173.79,173.79,173.79,173.79-77.81,173.79-173.79-77.81-173.79-173.79-173.79ZM420.94,468.7c-94.47,0-171.06-76.59-171.06-171.06s76.59-171.06,171.06-171.06,171.06,76.59,171.06,171.06-76.59,171.06-171.06,171.06Z"/>
  </g>
  <path class="st1" d="M420.94,198.75c54.78,0,99.23,44.45,99.23,99.23s-44.45,98.89-99.23,98.89-98.89-44.45-98.89-99.23,44.1-98.89,98.89-98.89Z"/>
  <path class="st2" d="M420.94,401c-27.56,0-53.41-10.68-73.04-30.32-19.64-19.64-30.32-45.48-30.32-73.05s10.68-53.41,30.32-73.04c19.64-19.64,45.48-30.32,73.04-30.32s53.41,10.68,73.05,30.32c19.64,19.64,30.32,45.48,30.32,73.04s-10.68,53.41-30.32,73.05c-19.64,19.64-45.48,30.32-73.05,30.32ZM420.94,202.89c-52.37,0-94.75,42.38-94.75,94.75s42.38,94.75,94.75,94.75,94.75-42.38,94.75-94.75-42.38-94.75-94.75-94.75Z"/>
  <path class="st2" d="M420.94,371.03c-40.31,0-73.39-32.73-73.39-73.39,0-21.02,8.96-41,24.81-54.78,1.72-1.72,4.48-1.38,6.2.35s1.38,4.48-.35,6.2c-13.78,12.4-21.71,29.98-21.71,48.58,0,35.49,28.94,64.78,64.78,64.78s64.77-28.94,64.77-64.78c0-19.64-8.96-38.25-24.12-50.31-1.72-1.38-2.07-4.13-.69-6.2,1.38-1.72,4.13-2.07,6.2-.69,17.57,14.13,27.57,34.8,27.57,57.2-.69,39.97-33.77,73.04-74.08,73.04Z"/>
  <path class="st2" d="M420.94,310.73c-2.41,0-4.48-2.07-4.48-4.48v-86.14c0-2.41,2.07-4.48,4.48-4.48s4.48,2.07,4.48,4.48v86.14c0,2.41-2.07,4.48-4.48,4.48Z"/>
</svg>