<?xml version="1.0" encoding="UTF-8"?>
<svg id="Layer_1" xmlns="http://www.w3.org/2000/svg" version="1.1" viewBox="0 0 841.89 595.28">
  <!-- Generator: Adobe Illustrator 29.7.1, SVG Export Plug-In . SVG Version: 2.1.1 Build 8)  -->
  <defs>
    <style>
      .st0 {
        fill: #0a2c4b;
      }

      .st1 {
        fill: #ee2e24;
      }

      .st2, .st3 {
        fill: #fcd01a;
      }

      .st3 {
        stroke-width: 2px;
      }

      .st3, .st4 {
        stroke: #fcd01a;
        stroke-miterlimit: 10;
      }

      .st4 {
        fill: none;
        stroke-width: 13px;
      }
    </style>
  </defs>
  <circle class="st0" cx="420.94" cy="297.64" r="219.12"/>
  <g>
    <circle class="st4" cx="416.48" cy="297.64" r="107.05"/>
    <rect class="st0" x="496.71" y="263.14" width="42.29" height="81.46"/>
  </g>
  <path class="st2" d="M389.56,277.81v-11.52c0-6.25,2.43-12.12,6.85-16.54,4.42-4.42,10.29-6.85,16.54-6.85s12.12,2.43,16.54,6.85c4.42,4.42,6.85,10.29,6.85,16.54v11.52c0,6.25-2.43,12.12-6.85,16.54-4.42,4.42-10.29,6.85-16.54,6.85s-12.12-2.43-16.54-6.85c-4.42-4.42-6.85-10.29-6.85-16.54ZM457.97,343.32c-1.41,2.39-3.67,4.12-6.35,4.86-12.51,3.47-27.94,4.19-38.68,4.19s-26.17-.73-38.68-4.19c-2.68-.74-4.93-2.47-6.35-4.86-1.41-2.39-1.84-5.2-1.2-7.9l3.66-15.41c.87-3.65,3.28-6.74,6.61-8.47l20.62-10.7c4.5,3.01,9.79,4.63,15.33,4.63s10.83-1.62,15.33-4.63l20.62,10.7c3.33,1.73,5.74,4.82,6.61,8.47l3.66,15.41c.64,2.7.22,5.51-1.2,7.9Z"/>
  <path class="st1" d="M539.27,297.06l-22.58-20.17c-3.64-3.25-10.09-1.34-10.39,5.23-.05,1.15.46,2.25,1.32,3.02l11.6,10.36h-35.41c-1.14,0-2.26.48-2.98,1.36-4.17,5.1-.63,10.84,4.26,10.84h34.13l-11.6,10.36c-.9.8-1.39,1.97-1.32,3.17.27,4.37,3.28,6.63,6.33,6.63,1.45,0,2.9-.51,4.06-1.55l22.58-20.17c1.3-1.16,2.04-2.81,2.04-4.55s-.74-3.39-2.04-4.55Z"/>
  <path class="st3" d="M420.94,123.84c-95.98,0-173.79,77.81-173.79,173.79s77.81,173.79,173.79,173.79,173.79-77.81,173.79-173.79-77.81-173.79-173.79-173.79ZM420.94,468.7c-94.47,0-171.06-76.59-171.06-171.06s76.59-171.06,171.06-171.06,171.06,76.59,171.06,171.06-76.59,171.06-171.06,171.06Z"/>
</svg>