<?xml version="1.0" encoding="UTF-8"?>
<svg id="Layer_1" xmlns="http://www.w3.org/2000/svg" version="1.1" viewBox="0 0 841.89 595.28">
  <!-- Generator: Adobe Illustrator 29.7.1, SVG Export Plug-In . SVG Version: 2.1.1 Build 8)  -->
  <defs>
    <style>
      .st0 {
        fill: #0a2c4b;
      }

      .st1 {
        fill: #ee2e24;
      }

      .st2, .st3 {
        fill: #fcd01a;
      }

      .st3 {
        stroke: #fcd01a;
        stroke-miterlimit: 10;
        stroke-width: 2px;
      }
    </style>
  </defs>
  <circle class="st0" cx="420.94" cy="297.64" r="219.12"/>
  <circle class="st0" cx="420.94" cy="297.64" r="173.79"/>
  <path class="st3" d="M420.94,123.84c-95.98,0-173.79,77.81-173.79,173.79s77.81,173.79,173.79,173.79,173.79-77.81,173.79-173.79-77.81-173.79-173.79-173.79ZM420.94,468.7c-94.47,0-171.06-76.59-171.06-171.06s76.59-171.06,171.06-171.06,171.06,76.59,171.06,171.06-76.59,171.06-171.06,171.06Z"/>
  <path class="st2" d="M523.87,301.56v-7.85c0-7.24-5.87-13.1-13.1-13.1h0c-5.66,0-10.63-3.64-12.44-9-1.19-3.52-2.61-6.94-4.25-10.22-2.53-5.08-1.61-11.2,2.4-15.21h0c5.12-5.13,5.12-13.42,0-18.54l-5.55-5.55c-5.12-5.12-13.41-5.12-18.53,0h0c-4.01,4.02-10.13,4.94-15.21,2.41-3.29-1.64-6.7-3.06-10.22-4.25-5.36-1.81-9-6.78-9-12.44h0c0-7.24-5.87-13.1-13.1-13.1h-7.85c-7.24,0-13.1,5.87-13.1,13.1h0c0,5.66-3.64,10.63-9,12.44-3.52,1.19-6.94,2.61-10.23,4.25-5.08,2.53-11.2,1.61-15.21-2.4h0c-5.12-5.13-13.41-5.13-18.53,0l-5.55,5.55c-5.12,5.12-5.12,13.41,0,18.53h0c4.01,4.02,4.93,10.14,2.4,15.22-1.64,3.29-3.06,6.7-4.25,10.22-1.81,5.36-6.78,9-12.44,9h0c-7.24,0-13.1,5.87-13.1,13.1v7.85c0,7.24,5.87,13.1,13.1,13.1h0c5.66,0,10.63,3.64,12.44,9,1.19,3.52,2.61,6.94,4.25,10.23,2.53,5.08,1.61,11.2-2.4,15.21h0c-5.12,5.13-5.12,13.42,0,18.54l5.55,5.55c5.12,5.12,13.41,5.12,18.53,0h0c4.01-4.02,10.13-4.94,15.21-2.41,3.29,1.64,6.7,3.06,10.23,4.25,5.36,1.81,9,6.78,9,12.44h0c0,7.24,5.87,13.1,13.1,13.1h7.85c7.24,0,13.1-5.87,13.1-13.1h0c0-5.66,3.64-10.63,9-12.44,3.52-1.19,6.94-2.61,10.23-4.25,5.08-2.53,11.2-1.61,15.21,2.4h0c5.12,5.13,13.41,5.13,18.53,0l5.55-5.55c5.12-5.12,5.12-13.41,0-18.53h0c-4.01-4.02-4.93-10.14-2.4-15.22,1.64-3.29,3.06-6.7,4.25-10.23,1.81-5.36,6.78-9,12.44-9h0c7.24,0,13.1-5.87,13.1-13.1ZM468.54,297.64c0,6-1.12,11.74-3.15,17.03-.31.8-.63,1.58-.98,2.36-4.78,10.68-13.39,19.3-24.08,24.08-.78.35-1.56.67-2.36.98-5.29,2.03-11.03,3.15-17.03,3.15s-11.74-1.12-17.03-3.15c-.8-.31-1.58-.63-2.36-.98-10.68-4.78-19.3-13.39-24.08-24.08-.35-.78-.67-1.56-.98-2.36-2.03-5.29-3.15-11.03-3.15-17.03s1.12-11.74,3.15-17.03c.31-.8.63-1.58.98-2.36,4.78-10.68,13.39-19.3,24.08-24.08.78-.35,1.56-.67,2.36-.98,5.29-2.03,11.03-3.15,17.03-3.15s11.74,1.12,17.03,3.15c.8.31,1.58.63,2.36.98,10.68,4.78,19.3,13.39,24.08,24.08.35.78.67,1.56.98,2.36,2.03,5.29,3.15,11.03,3.15,17.03Z"/>
  <path class="st1" d="M437.93,291.13c-.12-.3-.24-.61-.37-.9-1.83-4.08-5.12-7.37-9.2-9.2-.3-.13-.6-.26-.9-.37-2.02-.78-4.21-1.2-6.51-1.2s-4.48.43-6.51,1.2c-.3.12-.6.24-.9.37-4.08,1.83-7.37,5.12-9.2,9.2-.13.3-.26.6-.37.9-.78,2.02-1.2,4.21-1.2,6.51s.43,4.48,1.2,6.51c.12.3.24.6.37.9,1.83,4.08,5.12,7.37,9.2,9.2.3.13.6.26.9.37,2.02.78,4.21,1.2,6.51,1.2s4.48-.43,6.51-1.2c.3-.12.61-.24.9-.37,4.08-1.83,7.37-5.12,9.2-9.2.13-.3.26-.6.37-.9.78-2.02,1.2-4.21,1.2-6.51s-.43-4.48-1.2-6.51Z"/>
</svg>