<?xml version="1.0" encoding="UTF-8"?>
<svg id="Layer_1" xmlns="http://www.w3.org/2000/svg" version="1.1" viewBox="0 0 841.89 595.28">
  <!-- Generator: Adobe Illustrator 29.7.1, SVG Export Plug-In . SVG Version: 2.1.1 Build 8)  -->
  <defs>
    <style>
      .st0 {
        fill: #fff;
      }

      .st1 {
        fill: #0a2c4b;
      }

      .st2 {
        fill: #ee2e24;
      }

      .st3, .st4 {
        fill: #fcd01a;
      }

      .st4 {
        stroke: #fcd01a;
        stroke-miterlimit: 10;
        stroke-width: 2px;
      }
    </style>
  </defs>
  <g>
    <circle class="st1" cx="420.94" cy="297.64" r="219.12"/>
    <circle class="st1" cx="420.94" cy="297.64" r="173.79"/>
    <path class="st4" d="M420.94,123.84c-95.98,0-173.79,77.81-173.79,173.79s77.81,173.79,173.79,173.79,173.79-77.81,173.79-173.79-77.81-173.79-173.79-173.79ZM420.94,468.7c-94.47,0-171.06-76.59-171.06-171.06s76.59-171.06,171.06-171.06,171.06,76.59,171.06,171.06-76.59,171.06-171.06,171.06Z"/>
  </g>
  <path class="st2" d="M464.64,283.64c4.91,9.19,2.45,20.08-5.49,24.32-7.94,4.24-18.36.22-23.27-8.97-4.91-9.2-2.44-20.08,5.49-24.33,7.94-4.24,18.36-.22,23.27,8.98Z"/>
  <path class="st2" d="M410.47,225.08c-.5,25.34-46.48,72.93-46.48,72.93l15.27,28.6,15.27,28.61s65.11-11.72,86.45,1.97l-34.47-66.47-36.04-65.64Z"/>
  <path class="st3" d="M363.99,298.01l-30.88,16.48c-8.24,4.39-11.74,13.89-7.83,21.22l16.38,30.69c3.91,7.33,13.75,9.7,21.99,5.31l23.77-12.69,7.11-3.79-30.54-57.21Z"/>
  <path class="st3" d="M485.28,351.45c1.01,1.9-.38,4.62-3.11,6.08h0c-2.73,1.46-5.77,1.1-6.78-.81l-68.53-128.39c-1.01-1.9.38-4.62,3.11-6.07h0c2.73-1.46,5.77-1.1,6.78.8l68.54,128.39Z"/>
  <path class="st0" d="M509.09,263.56l-33.47,17.86c-1.57.84-3.52.24-4.36-1.32-.83-1.57-.25-3.52,1.32-4.36l33.47-17.86c1.57-.84,3.52-.24,4.36,1.33.84,1.57.25,3.52-1.32,4.36Z"/>
  <path class="st0" d="M487.52,237.91l-17.17,33.83c-.8,1.59-2.74,2.22-4.33,1.42-1.59-.8-2.22-2.74-1.41-4.33l17.17-33.83c.8-1.58,2.74-2.22,4.33-1.42,1.59.81,2.22,2.74,1.42,4.33Z"/>
  <path class="st0" d="M515.37,290.08l-37.67-4.56c-1.76-.22-3.37,1.04-3.58,2.81-.21,1.77,1.04,3.37,2.81,3.58l37.66,4.57c1.76.21,3.38-1.05,3.59-2.81.22-1.76-1.04-3.37-2.81-3.58Z"/>
</svg>