<?xml version="1.0" encoding="UTF-8"?>
<svg id="Layer_1" xmlns="http://www.w3.org/2000/svg" version="1.1" viewBox="0 0 841.89 595.28">
  <!-- Generator: Adobe Illustrator 29.7.1, SVG Export Plug-In . SVG Version: 2.1.1 Build 8)  -->
  <defs>
    <style>
      .st0 {
        fill: #0a2c4b;
      }

      .st1 {
        fill: #ee2e24;
        stroke: #0a2c4b;
        stroke-width: 7px;
      }

      .st1, .st2 {
        stroke-miterlimit: 10;
      }

      .st2 {
        fill: #fcd01a;
        stroke: #fcd01a;
        stroke-width: 2px;
      }
    </style>
  </defs>
  <g>
    <circle class="st0" cx="420.94" cy="297.64" r="219.12"/>
    <path class="st2" d="M420.94,123.84c-95.98,0-173.79,77.81-173.79,173.79s77.81,173.79,173.79,173.79,173.79-77.81,173.79-173.79-77.81-173.79-173.79-173.79ZM420.94,468.7c-94.47,0-171.06-76.59-171.06-171.06s76.59-171.06,171.06-171.06,171.06,76.59,171.06,171.06-76.59,171.06-171.06,171.06Z"/>
  </g>
  <g>
    <circle class="st1" cx="420.94" cy="297.64" r="110.25"/>
    <path class="st2" d="M399.18,338.12l-28.36-28.36c-2.49-2.49-2.49-6.52,0-9.01l9.07-9.07c2.49-2.49,6.52-2.49,9.01,0l14.78,14.78,49.3-49.3c2.49-2.49,6.52-2.49,9.01,0l9.07,9.07c2.49,2.49,2.49,6.52,0,9.01l-62.88,62.88c-2.49,2.49-6.52,2.49-9.01,0Z"/>
  </g>
</svg>