<?xml version="1.0" encoding="UTF-8"?>
<svg id="Layer_1" xmlns="http://www.w3.org/2000/svg" version="1.1" viewBox="0 0 841.89 595.28">
  <!-- Generator: Adobe Illustrator 29.7.1, SVG Export Plug-In . SVG Version: 2.1.1 Build 8)  -->
  <defs>
    <style>
      .st0 {
        fill: #0a2c4b;
      }

      .st1 {
        fill: #ee2e24;
      }

      .st2, .st3 {
        fill: #fcd01a;
      }

      .st3 {
        stroke: #fcd01a;
        stroke-miterlimit: 10;
        stroke-width: 2px;
      }
    </style>
  </defs>
  <g>
    <circle class="st0" cx="420.94" cy="297.64" r="219.12"/>
    <circle class="st0" cx="420.94" cy="297.64" r="173.79"/>
    <path class="st3" d="M420.94,123.84c-95.98,0-173.79,77.81-173.79,173.79s77.81,173.79,173.79,173.79,173.79-77.81,173.79-173.79-77.81-173.79-173.79-173.79ZM420.94,468.7c-94.47,0-171.06-76.59-171.06-171.06s76.59-171.06,171.06-171.06,171.06,76.59,171.06,171.06-76.59,171.06-171.06,171.06Z"/>
  </g>
  <g>
    <path class="st1" d="M420.94,210.33c48.37,0,87.61,39.24,87.61,87.61s-39.24,87.31-87.61,87.31-87.31-39.24-87.31-87.61,38.94-87.31,87.31-87.31Z"/>
    <path class="st2" d="M420.94,388.9c-24.34,0-47.15-9.43-64.49-26.77-17.34-17.34-26.77-40.16-26.77-64.49s9.43-47.15,26.77-64.49c17.34-17.34,40.15-26.77,64.49-26.77s47.15,9.43,64.49,26.77c17.34,17.34,26.77,40.16,26.77,64.49s-9.43,47.15-26.77,64.49c-17.34,17.34-40.16,26.77-64.49,26.77ZM420.94,213.98c-46.24,0-83.66,37.42-83.66,83.66s37.42,83.66,83.66,83.66,83.66-37.42,83.66-83.66-37.42-83.66-83.66-83.66Z"/>
    <path class="st2" d="M420.94,362.43c-35.59,0-64.8-28.9-64.8-64.8,0-18.56,7.91-36.2,21.9-48.37,1.52-1.52,3.95-1.22,5.48.31s1.22,3.95-.31,5.48c-12.17,10.95-19.16,26.47-19.16,42.89,0,31.33,25.55,57.19,57.19,57.19s57.19-25.55,57.19-57.19c0-17.34-7.91-33.77-21.29-44.41-1.52-1.22-1.83-3.65-.61-5.48,1.22-1.52,3.65-1.82,5.47-.61,15.52,12.47,24.34,30.72,24.34,50.5-.61,35.29-29.81,64.49-65.4,64.49Z"/>
    <path class="st2" d="M420.94,309.2c-2.13,0-3.95-1.83-3.95-3.96v-76.05c0-2.13,1.83-3.96,3.95-3.96s3.95,1.83,3.95,3.96v76.05c0,2.13-1.83,3.96-3.95,3.96Z"/>
  </g>
</svg>