<?xml version="1.0" encoding="UTF-8"?>
<svg id="Layer_1" xmlns="http://www.w3.org/2000/svg" version="1.1" viewBox="0 0 841.89 595.28">
  <!-- Generator: Adobe Illustrator 29.7.1, SVG Export Plug-In . SVG Version: 2.1.1 Build 8)  -->
  <defs>
    <style>
      .st0 {
        fill: #0a2c4b;
      }

      .st1 {
        fill: #ee2e24;
        stroke: #0a2c4b;
        stroke-width: 7px;
      }

      .st1, .st2 {
        stroke-miterlimit: 10;
      }

      .st3, .st2 {
        fill: #fcd01a;
      }

      .st2 {
        stroke: #fcd01a;
        stroke-width: 2px;
      }
    </style>
  </defs>
  <circle class="st0" cx="420.94" cy="297.64" r="219.12"/>
  <circle class="st0" cx="420.94" cy="297.64" r="173.79"/>
  <path class="st2" d="M420.94,123.84c-95.98,0-173.79,77.81-173.79,173.79s77.81,173.79,173.79,173.79,173.79-77.81,173.79-173.79-77.81-173.79-173.79-173.79ZM420.94,468.7c-94.47,0-171.06-76.59-171.06-171.06s76.59-171.06,171.06-171.06,171.06,76.59,171.06,171.06-76.59,171.06-171.06,171.06Z"/>
  <g>
    <path class="st3" d="M500.71,215.02h-10.81v-5.28c0-.88-.71-1.59-1.59-1.59s-1.59.71-1.59,1.59v5.28h-19.59v-5.28c0-.88-.71-1.59-1.59-1.59-.44,0-.83.18-1.12.47s-.46.69-.46,1.12v5.28h-19.59v-5.28c0-.88-.71-1.59-1.59-1.59s-1.59.71-1.59,1.59v5.28h-19.59v-5.28c0-.88-.71-1.59-1.59-1.59s-1.59.71-1.59,1.59v5.28h-19.59v-5.28c0-.88-.71-1.59-1.59-1.59-.44,0-.83.18-1.12.47-.29.29-.47.69-.47,1.12v5.28h-19.59v-5.28c0-.88-.71-1.59-1.59-1.59s-1.59.71-1.59,1.59v5.28h-19.59v-5.28c0-.88-.71-1.59-1.59-1.59s-1.59.71-1.59,1.59v5.28h-8.94c-7.59,0-13.75,6.16-13.75,13.75v17.52h187.03v-17.52c0-7.59-6.16-13.75-13.75-13.75ZM351.71,234.25c-3.6,0-6.51-2.92-6.51-6.51,0-3.05,2.1-5.61,4.93-6.32v1.74c0,.88.71,1.59,1.59,1.59s1.59-.71,1.59-1.59v-1.74c2.83.71,4.93,3.27,4.93,6.32,0,3.6-2.92,6.51-6.51,6.51ZM374.47,234.25c-3.6,0-6.51-2.92-6.51-6.51,0-3.05,2.1-5.61,4.92-6.32v1.74c0,.88.71,1.59,1.59,1.59s1.59-.71,1.59-1.59v-1.74c2.83.71,4.92,3.27,4.92,6.32,0,3.6-2.92,6.51-6.51,6.51ZM397.24,234.25c-3.6,0-6.51-2.92-6.51-6.51,0-3.05,2.1-5.61,4.92-6.32v1.74c0,.88.71,1.59,1.59,1.59.44,0,.83-.18,1.12-.46.29-.29.47-.69.47-1.12v-1.74c2.83.71,4.93,3.27,4.93,6.32,0,3.6-2.92,6.51-6.51,6.51ZM420.01,234.25c-3.6,0-6.51-2.92-6.51-6.51,0-3.05,2.1-5.61,4.92-6.32v1.74c0,.88.71,1.59,1.59,1.59s1.59-.71,1.59-1.59v-1.74c2.83.71,4.92,3.27,4.92,6.32,0,3.6-2.92,6.51-6.51,6.51ZM442.78,234.25c-3.6,0-6.51-2.92-6.51-6.51,0-3.05,2.1-5.61,4.92-6.32v1.74c0,.88.71,1.59,1.59,1.59s1.59-.71,1.59-1.59v-1.74c2.83.71,4.93,3.27,4.93,6.32,0,3.6-2.92,6.51-6.51,6.51ZM465.54,234.25c-3.6,0-6.51-2.92-6.51-6.51,0-3.05,2.1-5.61,4.92-6.32v1.74c0,.88.71,1.59,1.59,1.59.44,0,.84-.18,1.12-.46.29-.29.47-.69.47-1.12v-1.74c2.83.71,4.92,3.27,4.92,6.32,0,3.6-2.92,6.51-6.51,6.51ZM488.31,234.25c-3.6,0-6.51-2.92-6.51-6.51,0-3.05,2.1-5.61,4.92-6.32v1.74c0,.88.71,1.59,1.59,1.59s1.59-.71,1.59-1.59v-1.74c2.83.71,4.93,3.27,4.93,6.32,0,3.6-2.92,6.51-6.51,6.51Z"/>
    <path class="st3" d="M327.43,373.37c0,7.59,6.16,13.75,13.75,13.75h159.53c7.59,0,13.75-6.16,13.75-13.75v-119.71h-187.03v119.71ZM342.79,272.16c0-1.74,1.41-3.15,3.15-3.15h17.31c1.74,0,3.15,1.41,3.15,3.15v12.08c0,1.74-1.41,3.15-3.15,3.15h-17.31c-1.74,0-3.15-1.41-3.15-3.15v-12.08ZM475.49,272.16c0-1.74,1.41-3.15,3.15-3.15h17.31c1.74,0,3.15,1.41,3.15,3.15v12.08c0,1.74-1.41,3.15-3.15,3.15h-17.31c-1.74,0-3.15-1.41-3.15-3.15v-12.08ZM475.49,356.54c0-1.74,1.41-3.15,3.15-3.15h17.31c1.74,0,3.15,1.41,3.15,3.15v12.08c0,1.74-1.41,3.15-3.15,3.15h-17.31c-1.74,0-3.15-1.41-3.15-3.15v-12.08ZM475.49,300.29c0-1.74,1.41-3.15,3.15-3.15h17.31c1.74,0,3.15,1.41,3.15,3.15v12.08c0,1.74-1.41,3.15-3.15,3.15h-17.31c-1.74,0-3.15-1.41-3.15-3.15v-12.08ZM475.49,328.41c0-1.74,1.41-3.15,3.15-3.15h17.31c1.74,0,3.15,1.41,3.15,3.15v12.08c0,1.74-1.41,3.15-3.15,3.15h-17.31c-1.74,0-3.15-1.41-3.15-3.15v-12.08ZM442.32,272.16c0-1.74,1.41-3.15,3.15-3.15h17.31c1.74,0,3.15,1.41,3.15,3.15v12.08c0,1.74-1.41,3.15-3.15,3.15h-17.31c-1.74,0-3.15-1.41-3.15-3.15v-12.08ZM442.32,300.29c0-1.74,1.41-3.15,3.15-3.15h17.31c1.74,0,3.15,1.41,3.15,3.15v12.08c0,1.74-1.41,3.15-3.15,3.15h-17.31c-1.74,0-3.15-1.41-3.15-3.15v-12.08ZM442.32,328.41c0-1.74,1.41-3.15,3.15-3.15h17.31c1.74,0,3.15,1.41,3.15,3.15v12.08c0,1.74-1.41,3.15-3.15,3.15h-17.31c-1.74,0-3.15-1.41-3.15-3.15v-12.08ZM442.32,356.54c0-1.74,1.41-3.15,3.15-3.15h17.31c1.74,0,3.15,1.41,3.15,3.15v12.08c0,1.74-1.41,3.15-3.15,3.15h-17.31c-1.74,0-3.15-1.41-3.15-3.15v-12.08ZM409.14,272.16c0-1.74,1.41-3.15,3.15-3.15h17.31c1.74,0,3.15,1.41,3.15,3.15v12.08c0,1.74-1.41,3.15-3.15,3.15h-17.31c-1.74,0-3.15-1.41-3.15-3.15v-12.08ZM409.14,300.29c0-1.74,1.41-3.15,3.15-3.15h17.31c1.74,0,3.15,1.41,3.15,3.15v12.08c0,1.74-1.41,3.15-3.15,3.15h-17.31c-1.74,0-3.15-1.41-3.15-3.15v-12.08ZM409.14,328.41c0-1.74,1.41-3.15,3.15-3.15h17.31c1.74,0,3.15,1.41,3.15,3.15v12.08c0,1.74-1.41,3.15-3.15,3.15h-17.31c-1.74,0-3.15-1.41-3.15-3.15v-12.08ZM409.14,356.54c0-1.74,1.41-3.15,3.15-3.15h17.31c1.74,0,3.15,1.41,3.15,3.15v12.08c0,1.74-1.41,3.15-3.15,3.15h-17.31c-1.74,0-3.15-1.41-3.15-3.15v-12.08ZM375.97,272.16c0-1.74,1.41-3.15,3.15-3.15h17.31c1.74,0,3.15,1.41,3.15,3.15v12.08c0,1.74-1.41,3.15-3.15,3.15h-17.31c-1.74,0-3.15-1.41-3.15-3.15v-12.08ZM375.97,300.29c0-1.74,1.41-3.15,3.15-3.15h17.31c1.74,0,3.15,1.41,3.15,3.15v12.08c0,1.74-1.41,3.15-3.15,3.15h-17.31c-1.74,0-3.15-1.41-3.15-3.15v-12.08ZM375.97,328.41c0-1.74,1.41-3.15,3.15-3.15h17.31c1.74,0,3.15,1.41,3.15,3.15v12.08c0,1.74-1.41,3.15-3.15,3.15h-17.31c-1.74,0-3.15-1.41-3.15-3.15v-12.08ZM375.97,356.54c0-1.74,1.41-3.15,3.15-3.15h17.31c1.74,0,3.15,1.41,3.15,3.15v12.08c0,1.74-1.41,3.15-3.15,3.15h-17.31c-1.74,0-3.15-1.41-3.15-3.15v-12.08ZM342.79,300.29c0-1.74,1.41-3.15,3.15-3.15h17.31c1.74,0,3.15,1.41,3.15,3.15v12.08c0,1.74-1.41,3.15-3.15,3.15h-17.31c-1.74,0-3.15-1.41-3.15-3.15v-12.08ZM342.79,328.41c0-1.74,1.41-3.15,3.15-3.15h17.31c1.74,0,3.15,1.41,3.15,3.15v12.08c0,1.74-1.41,3.15-3.15,3.15h-17.31c-1.74,0-3.15-1.41-3.15-3.15v-12.08ZM342.79,356.54c0-1.74,1.41-3.15,3.15-3.15h17.31c1.74,0,3.15,1.41,3.15,3.15v12.08c0,1.74-1.41,3.15-3.15,3.15h-17.31c-1.74,0-3.15-1.41-3.15-3.15v-12.08Z"/>
  </g>
  <g>
    <circle class="st1" cx="486.1" cy="365.12" r="46.23"/>
    <path class="st2" d="M476.97,382.09l-11.89-11.89c-1.04-1.04-1.04-2.73,0-3.78l3.8-3.8c1.04-1.04,2.73-1.04,3.78,0l6.2,6.2,20.67-20.67c1.04-1.04,2.73-1.04,3.78,0l3.8,3.8c1.04,1.04,1.04,2.73,0,3.78l-26.37,26.37c-1.04,1.04-2.73,1.04-3.78,0Z"/>
  </g>
</svg>