<?xml version="1.0" encoding="UTF-8"?>
<svg id="Layer_1" xmlns="http://www.w3.org/2000/svg" version="1.1" viewBox="0 0 841.89 595.28">
  <!-- Generator: Adobe Illustrator 29.7.1, SVG Export Plug-In . SVG Version: 2.1.1 Build 8)  -->
  <defs>
    <style>
      .st0 {
        fill: none;
        stroke-width: 14px;
      }

      .st0, .st1, .st2 {
        stroke-miterlimit: 10;
      }

      .st0, .st2 {
        stroke: #fcd01a;
      }

      .st3 {
        fill: #0a2c4b;
      }

      .st1 {
        fill: #e22e28;
        stroke: #e22e28;
      }

      .st1, .st2 {
        stroke-width: 2px;
      }

      .st2 {
        fill: #fcd01a;
      }
    </style>
  </defs>
  <circle class="st3" cx="420.94" cy="297.64" r="219.12"/>
  <path class="st2" d="M420.94,123.84c-95.98,0-173.79,77.81-173.79,173.79s77.81,173.79,173.79,173.79,173.79-77.81,173.79-173.79-77.81-173.79-173.79-173.79ZM420.94,468.7c-94.47,0-171.06-76.59-171.06-171.06s76.59-171.06,171.06-171.06,171.06,76.59,171.06,171.06-76.59,171.06-171.06,171.06Z"/>
  <g>
    <path class="st2" d="M406.98,345.54h-15.7c-10.15,0-18.41-8.26-18.41-18.41v-58.98c0-10.16,8.26-18.42,18.41-18.42h15.7c4.1,0,7.42,3.32,7.42,7.42s-3.32,7.42-7.42,7.42h-15.7c-1.97,0-3.57,1.61-3.57,3.58v58.98c0,1.97,1.6,3.57,3.57,3.57h15.7c4.1,0,7.42,3.32,7.42,7.42s-3.32,7.42-7.42,7.42Z"/>
    <path class="st1" d="M467.31,302.33c.12-.15.25-.28.36-.44.2-.28.35-.58.51-.88.07-.14.16-.27.22-.41.16-.36.27-.75.37-1.14.02-.1.07-.19.09-.29.1-.49.16-1,.16-1.53s-.06-1.04-.16-1.53c-.02-.1-.06-.19-.09-.29-.1-.39-.21-.78-.37-1.14-.06-.14-.15-.27-.22-.41-.16-.3-.31-.61-.51-.89-.11-.15-.24-.29-.36-.43-.2-.24-.4-.48-.62-.69-.04-.04-.07-.09-.12-.13l-23.37-21.09c-3.04-2.75-7.73-2.51-10.48.54-2.75,3.04-2.5,7.73.54,10.48l9.05,8.17h-33.61c-4.1,0-7.42,3.32-7.42,7.42s3.32,7.42,7.42,7.42h33.61l-9.05,8.16c-3.04,2.75-3.28,7.44-.54,10.48,1.47,1.62,3.48,2.45,5.51,2.45,1.77,0,3.55-.63,4.97-1.91l23.37-21.09s.08-.09.12-.13c.22-.21.42-.45.62-.69Z"/>
  </g>
  <circle class="st0" cx="420.94" cy="297.64" r="91.11"/>
</svg>