<?xml version="1.0" encoding="UTF-8"?>
<svg id="Layer_1" xmlns="http://www.w3.org/2000/svg" version="1.1" viewBox="0 0 841.89 595.28">
  <!-- Generator: Adobe Illustrator 29.7.1, SVG Export Plug-In . SVG Version: 2.1.1 Build 8)  -->
  <defs>
    <style>
      .st0 {
        fill: #0a2c4b;
      }

      .st1, .st2 {
        fill: #fcd01a;
      }

      .st3 {
        fill: #ee2e24;
        stroke-width: 7px;
      }

      .st3, .st2 {
        stroke: #fcd01a;
        stroke-miterlimit: 10;
      }

      .st2 {
        stroke-width: 2px;
      }
    </style>
  </defs>
  <circle class="st0" cx="420.94" cy="297.64" r="219.12"/>
  <circle class="st0" cx="420.94" cy="297.64" r="173.79"/>
  <path class="st2" d="M420.94,123.84c-95.98,0-173.79,77.81-173.79,173.79s77.81,173.79,173.79,173.79,173.79-77.81,173.79-173.79-77.81-173.79-173.79-173.79ZM420.94,468.7c-94.47,0-171.06-76.59-171.06-171.06s76.59-171.06,171.06-171.06,171.06,76.59,171.06,171.06-76.59,171.06-171.06,171.06Z"/>
  <g id="_x39_77_x2C__camposs_x2C__Clock_x2C__stopwatch_x2C__timer_x2C__watch">
    <g>
      <path class="st1" d="M494,247.86l9.23-11.64c1.61-2.01,1.2-5.22-.8-7.22l-16.06-12.44c-2.01-1.61-5.22-1.2-7.22.8l-8.83,11.64c-9.23-5.22-19.27-9.23-29.3-11.24v-14.45h5.62c1.6,0,3.21-.8,4.01-2.01l11.64-17.26c1.2-1.61,1.2-3.61.4-5.22-.8-1.61-2.41-2.81-4.42-2.81h-77.47c-2.01,0-3.61.8-4.42,2.41-.8,1.61-.8,3.61,0,5.22l10.44,17.26c.8,1.61,2.41,2.41,4.42,2.41h6.42v14.45c-46.97,10.04-80.69,51.79-80.69,99.55,0,56.2,45.76,101.96,102.36,101.96s102.36-45.76,102.36-101.96c0-26.09-9.63-50.58-27.7-69.45ZM484.37,227.79l8.03,6.02-5.22,6.82c-2.41-2.41-5.22-4.42-8.03-6.42l5.22-6.42ZM389.63,186.44h59.01l-4.82,7.22h-49.78l-4.42-7.22ZM430.98,203.71v12.85c-7.22-.8-15.25-.8-23.28,0v-12.85h23.28ZM419.34,409.23c-50.98,0-92.33-41.35-92.33-91.92,0-45.36,32.92-83.1,76.67-90.32,22.08-3.61,44.96.4,64.63,12.84l.4.4c5.22,3.21,10.44,7.23,14.85,11.64q.4.4.8.8c16.46,16.46,26.9,39.34,26.9,65.03.4,50.18-40.95,91.52-91.93,91.52Z"/>
      <path class="st1" d="M439.01,256.29c-16.46-5.22-33.72-4.01-48.97,4.01-2.41,1.21-3.61,4.42-2.01,6.82,1.2,2.41,4.41,3.61,6.82,2.01,12.85-6.42,27.7-8.03,41.35-3.21,28.5,9.23,44.16,39.74,34.92,68.24-4.41,13.65-14.05,24.89-26.9,31.71-26.49,13.65-58.61,3.61-72.66-22.88-1.21-2.41-4.42-3.21-6.82-2.01-2.41,1.21-3.21,4.42-2.01,6.82,16.46,30.91,55,42.95,86.31,26.9,15.25-8.03,26.49-21.27,31.71-37.33,10.84-34.12-8.03-70.25-41.75-81.09Z"/>
    </g>
  </g>
  <rect class="st3" x="304.19" y="275.77" width="91.2" height="57.46" rx="18.02" ry="18.02"/>
  <g>
    <path class="st1" d="M328.79,317.04c-1.92,0-3.69-.31-5.32-.94-1.63-.62-3.04-1.5-4.23-2.63s-2.11-2.46-2.77-3.99c-.66-1.53-.99-3.19-.99-4.99s.33-3.47.99-4.99c.66-1.53,1.59-2.85,2.79-3.99,1.2-1.13,2.61-2.01,4.23-2.63,1.62-.62,3.37-.94,5.27-.94s3.68.31,5.29.94c1.61.62,3,1.5,4.19,2.63,1.19,1.13,2.12,2.45,2.79,3.97.67,1.51,1.01,3.18,1.01,5.01s-.34,3.47-1.01,5.01c-.67,1.54-1.6,2.87-2.79,3.99-1.19,1.12-2.59,1.99-4.19,2.62-1.61.62-3.36.94-5.25.94ZM328.75,312.26c1.09,0,2.09-.19,3-.55.91-.37,1.72-.9,2.41-1.59s1.23-1.51,1.61-2.46.57-2,.57-3.15-.19-2.21-.57-3.15c-.38-.95-.91-1.77-1.59-2.46s-1.48-1.22-2.41-1.59-1.93-.56-3.02-.56-2.09.19-3,.56-1.72.9-2.41,1.59-1.23,1.51-1.61,2.46c-.38.95-.57,2-.57,3.15s.19,2.18.57,3.14c.38.96.91,1.78,1.59,2.48.68.69,1.48,1.23,2.41,1.59.92.37,1.93.55,3.02.55Z"/>
    <path class="st1" d="M350.12,298.63v2.89c0,.97.79,1.76,1.76,1.76h7.71c.97,0,1.76.79,1.76,1.76v.99c0,.97-.79,1.76-1.76,1.76h-7.71c-.97,0-1.76.79-1.76,1.76v5.31c0,.97-.79,1.76-1.76,1.76h-2.09c-.97,0-1.76-.79-1.76-1.76v-20.74c0-.97.79-1.76,1.76-1.76h14.82c.97,0,1.76.79,1.76,1.76v.98c0,.97-.79,1.76-1.76,1.76h-9.2c-.97,0-1.76.79-1.76,1.76Z"/>
    <path class="st1" d="M371.38,298.63v2.89c0,.97.79,1.76,1.76,1.76h7.71c.97,0,1.76.79,1.76,1.76v.99c0,.97-.79,1.76-1.76,1.76h-7.71c-.97,0-1.76.79-1.76,1.76v5.31c0,.97-.79,1.76-1.76,1.76h-2.09c-.97,0-1.76-.79-1.76-1.76v-20.74c0-.97.79-1.76,1.76-1.76h14.82c.97,0,1.76.79,1.76,1.76v.98c0,.97-.79,1.76-1.76,1.76h-9.2c-.97,0-1.76.79-1.76,1.76Z"/>
  </g>
</svg>