<?xml version="1.0" encoding="UTF-8"?>
<svg id="Layer_1" xmlns="http://www.w3.org/2000/svg" version="1.1" viewBox="0 0 841.89 595.28">
  <!-- Generator: Adobe Illustrator 29.7.1, SVG Export Plug-In . SVG Version: 2.1.1 Build 8)  -->
  <defs>
    <style>
      .st0 {
        fill: #cccbca;
      }

      .st1 {
        fill: #0a2c4b;
      }

      .st2 {
        fill: #989798;
      }

      .st3 {
        fill: #f4dc79;
      }

      .st4, .st5 {
        fill: #fcd01a;
      }

      .st5 {
        stroke: #fcd01a;
        stroke-miterlimit: 10;
        stroke-width: 2px;
      }

      .st6 {
        fill: #d1d3d1;
      }

      .st7 {
        fill: #fbfcfc;
      }
    </style>
  </defs>
  <circle class="st1" cx="420.94" cy="297.64" r="219.12"/>
  <path class="st2" d="M420.94,191.66c-2.54,0-4.61-1.99-4.76-4.49,0,.09-.01.19-.01.28,0,2.64,2.14,4.77,4.77,4.77s4.77-2.14,4.77-4.77c0-.1,0-.19-.01-.28-.15,2.5-2.22,4.49-4.76,4.49Z"/>
  <g>
    <path class="st4" d="M479.75,417.07h-139.62c-9.47,0-17.14-7.77-17.14-17.35v-189.11c0-9.58,7.67-17.35,17.14-17.35h139.62c9.47,0,17.14,7.77,17.14,17.35v189.11c0,9.58-7.67,17.35-17.14,17.35Z"/>
    <polygon class="st0" points="469.94 217.24 349.95 217.24 352.74 213.56 352.74 202.14 467.15 202.14 467.15 213.56 469.94 217.24"/>
    <polygon class="st2" points="467.15 213.56 467.15 207.6 352.74 207.6 352.74 213.56 349.95 217.24 469.94 217.24 467.15 213.56"/>
    <polygon class="st2" points="467.15 208.37 352.74 208.37 352.74 213.56 349.95 217.24 469.94 217.24 467.15 213.56 467.15 208.37"/>
    <rect class="st6" x="349.95" y="213.56" width="119.99" height="3.68"/>
    <path class="st0" d="M461.85,191.79c-1.61-3.15-4.85-5.13-8.39-5.13h-34.84c-.13-4.69-3.96-8.45-8.67-8.45s-8.55,3.76-8.67,8.45h-35.22c-3.64,0-6.95,2.09-8.52,5.38l-4.8,10.1h114.42l-5.3-10.35ZM409.94,191.66c-2.64,0-4.77-2.14-4.77-4.77s2.14-4.77,4.77-4.77,4.77,2.14,4.77,4.77-2.14,4.77-4.77,4.77Z"/>
    <polygon class="st2" points="353.11 201.36 352.74 202.14 467.15 202.14 466.76 201.36 353.11 201.36"/>
    <rect class="st7" x="342.06" y="226.02" width="135.77" height="177.31" rx="3.57" ry="3.57"/>
    <g>
      <rect class="st1" x="351.14" y="251.75" width="117.6" height="3.27"/>
      <rect class="st1" x="351.14" y="261.1" width="117.6" height="3.27"/>
      <rect class="st1" x="351.14" y="270.45" width="80.45" height="3.27"/>
      <rect class="st1" x="351.14" y="291.56" width="117.6" height="3.27"/>
      <rect class="st1" x="351.14" y="300.91" width="117.6" height="3.27"/>
      <rect class="st1" x="351.14" y="310.26" width="106.33" height="3.27"/>
      <rect class="st1" x="351.14" y="331.38" width="117.6" height="3.27"/>
      <rect class="st1" x="351.14" y="340.73" width="117.6" height="3.27"/>
      <rect class="st1" x="351.14" y="371.19" width="117.6" height="3.27"/>
      <rect class="st1" x="351.14" y="380.54" width="117.6" height="3.27"/>
      <rect class="st1" x="351.14" y="389.89" width="38.05" height="3.27"/>
      <rect class="st1" x="351.14" y="235.78" width="117.6" height="9.37"/>
    </g>
  </g>
  <g>
    <path class="st4" d="M514.16,362.05c1.13,3.86,2.44,1.29,2.8-.03.29-1.07.71-2.61,1.2-4.39h-5.25c.49,1.77.93,3.32,1.25,4.42Z"/>
    <path class="st4" d="M518.29,249.92c0-1.85,1.22-3.35,2.72-3.35h0c1.5,0,2.72,1.5,2.72,3.35v88.9c0,1.85-1.22,3.35-2.72,3.35h0c-1.5,0-2.72-1.5-2.72-3.35v-88.9Z"/>
    <path class="st3" d="M512.84,249.92c0-1.85,1.22-3.35,2.72-3.35h0c1.5,0,2.72,1.5,2.72,3.35v88.9c0,1.85-1.22,3.35-2.72,3.35h0c-1.5,0-2.72-1.5-2.72-3.35v-88.9Z"/>
    <path class="st4" d="M507.39,249.92c0-1.85,1.22-3.35,2.72-3.35h0c1.5,0,2.72,1.5,2.72,3.35v88.9c0,1.85-1.22,3.35-2.72,3.35h0c-1.5,0-2.72-1.5-2.72-3.35v-88.9Z"/>
    <rect class="st2" x="507.39" y="246.12" width="16.34" height="5.95"/>
    <path class="st2" d="M518.16,357.62c2.09-7.67,5.46-17.86,5.46-17.86l-8.19-3.18-7.92,3.21s3.26,10.09,5.41,17.84h5.25Z"/>
    <path class="st4" d="M507.39,246.12h16.34v-6.21h0c0-.09,0-.19,0-.28,0-4.66-3.66-8.44-8.17-8.44s-8.17,3.78-8.17,8.44c0,.1,0,.19,0,.28h0v6.21Z"/>
  </g>
  <path class="st5" d="M420.94,123.84c-95.98,0-173.79,77.81-173.79,173.79s77.81,173.79,173.79,173.79,173.79-77.81,173.79-173.79-77.81-173.79-173.79-173.79ZM420.94,468.7c-94.47,0-171.06-76.59-171.06-171.06s76.59-171.06,171.06-171.06,171.06,76.59,171.06,171.06-76.59,171.06-171.06,171.06Z"/>
</svg>