<?xml version="1.0" encoding="UTF-8"?>
<svg id="Layer_1" xmlns="http://www.w3.org/2000/svg" version="1.1" viewBox="0 0 841.89 595.28">
  <!-- Generator: Adobe Illustrator 29.7.1, SVG Export Plug-In . SVG Version: 2.1.1 Build 8)  -->
  <defs>
    <style>
      .st0 {
        fill: #0a2c4b;
      }

      .st1 {
        fill: #ee2e24;
      }

      .st2, .st3 {
        fill: #fcd01a;
      }

      .st3 {
        stroke: #fcd01a;
        stroke-miterlimit: 10;
        stroke-width: 2px;
      }
    </style>
  </defs>
  <circle class="st0" cx="420.94" cy="297.64" r="219.12"/>
  <circle class="st0" cx="420.94" cy="297.64" r="173.79"/>
  <path class="st3" d="M420.94,123.84c-95.98,0-173.79,77.81-173.79,173.79s77.81,173.79,173.79,173.79,173.79-77.81,173.79-173.79-77.81-173.79-173.79-173.79ZM420.94,468.7c-94.47,0-171.06-76.59-171.06-171.06s76.59-171.06,171.06-171.06,171.06,76.59,171.06,171.06-76.59,171.06-171.06,171.06Z"/>
  <path class="st1" d="M474.18,268.2c-4.21,13.94-14.08,26.61-28.64,36.37l-2.64,20.67c-.83,6.47-5.17,11.85-11.45,14.08-1.8.62-3.68.93-5.59.93-4.55,0-8.83-1.76-12.03-4.91l-13.85-13.55c-6.91,1.08-13.99,1.62-21.12,1.62-.24,0-.46-.02-.7-.02-.05.77-.18,1.52-.18,2.3,0,17.76,11.72,33.64,30.13,44.28l3.4,26.6c.22,1.72,1.39,3.16,3.03,3.75,1.62.56,3.46.16,4.68-1.06l18.53-18.13c7.98,1.68,16.48,2.6,25.28,2.6,46.97,0,85.05-25.99,85.05-58.04,0-29.49-32.21-53.77-73.9-57.5h0ZM463.03,336.91c-6.21,0-11.23-5.01-11.23-11.23s5.02-11.21,11.23-11.21,11.21,5.03,11.21,11.21-5.01,11.23-11.21,11.23h0ZM495.36,336.91c-6.2,0-11.22-5.01-11.22-11.23s5.02-11.21,11.22-11.21,11.22,5.03,11.22,11.21c0,6.21-5.03,11.23-11.22,11.23h0ZM495.36,336.91"/>
  <path class="st2" d="M404.13,308.2l18.53,18.13c.87.85,2.02,1.3,3.2,1.3.5,0,1-.08,1.49-.24,1.65-.58,2.81-2.02,3.03-3.75l3.39-26.6c18.42-10.65,30.13-26.53,30.13-44.28,0-32.07-38.08-58.06-85.05-58.06s-85.04,25.99-85.04,58.06,38.07,58.05,85.04,58.05c8.8,0,17.29-.91,25.27-2.6h0ZM411.18,241.52c6.2,0,11.22,5.02,11.22,11.21s-5.02,11.22-11.22,11.22-11.22-5.01-11.22-11.22,5.02-11.21,11.22-11.21h0ZM346.53,263.96c-6.19,0-11.22-5.01-11.22-11.22s5.03-11.21,11.22-11.21,11.22,5.02,11.22,11.21-5.01,11.22-11.22,11.22h0ZM367.65,252.73c0-6.19,5.01-11.21,11.21-11.21s11.23,5.02,11.23,11.21-5.03,11.22-11.23,11.22-11.21-5.01-11.21-11.22h0ZM367.65,252.73"/>
</svg>