<?xml version="1.0" encoding="UTF-8"?>
<svg xmlns="http://www.w3.org/2000/svg" version="1.1" viewBox="0 0 841.89 595.28">
  <!-- Generator: Adobe Illustrator 29.7.1, SVG Export Plug-In . SVG Version: 2.1.1 Build 8)  -->
  <defs>
    <style>
      .st0, .st1, .st2, .st3, .st4, .st5 {
        fill: #fcd01a;
      }

      .st0, .st1, .st6 {
        opacity: .6;
      }

      .st0, .st3, .st6, .st7 {
        mix-blend-mode: multiply;
      }

      .st8 {
        opacity: 0;
      }

      .st8, .st9, .st10 {
        fill: #010101;
      }

      .st9, .st7 {
        opacity: .5;
      }

      .st11 {
        fill: #0a2c4b;
      }

      .st12 {
        isolation: isolate;
      }

      .st3, .st4 {
        opacity: .3;
      }

      .st5 {
        stroke: #fcd01a;
        stroke-miterlimit: 10;
        stroke-width: 2px;
      }
    </style>
  </defs>
  <g class="st12">
    <g id="Layer_1">
      <g>
        <circle class="st11" cx="420.94" cy="297.64" r="219.12"/>
        <circle class="st11" cx="420.94" cy="297.64" r="173.79"/>
        <path class="st5" d="M420.94,123.84c-95.98,0-173.79,77.81-173.79,173.79s77.81,173.79,173.79,173.79,173.79-77.81,173.79-173.79-77.81-173.79-173.79-173.79ZM420.94,468.7c-94.47,0-171.06-76.59-171.06-171.06s76.59-171.06,171.06-171.06,171.06,76.59,171.06,171.06-76.59,171.06-171.06,171.06Z"/>
      </g>
      <g>
        <g class="st7">
          <path class="st8" d="M500.36,381.33c0,12.44-35.56,22.52-79.42,22.52s-79.42-10.08-79.42-22.52,35.55-22.51,79.42-22.51,79.42,10.08,79.42,22.51Z"/>
          <path class="st9" d="M462.2,381.33c0,6.47-18.47,11.7-41.25,11.7s-41.25-5.24-41.25-11.7,18.47-11.69,41.25-11.69,41.25,5.24,41.25,11.69Z"/>
          <path class="st10" d="M424.03,381.33c0,.49-1.38.88-3.09.88s-3.09-.39-3.09-.88,1.38-.87,3.09-.87,3.09.39,3.09.87Z"/>
        </g>
        <path class="st2" d="M449.44,336.25c.01,2.9.02,5.82.04,8.72-.01-3.86-2.79-7.7-8.32-10.61-10.98-5.76-28.65-5.64-39.47.29-5.38,2.94-8.05,6.77-8.03,10.58l-.04-8.73c-.01-3.8,2.66-7.63,8.03-10.57,10.82-5.93,28.49-6.06,39.47-.29,5.53,2.9,8.3,6.75,8.32,10.61Z"/>
        <path class="st2" d="M466.24,336.17c0,2.91.02,5.82.04,8.73.03,6.1-4.25,12.22-12.86,16.94-17.33,9.5-45.63,9.71-63.21.47-8.85-4.65-13.3-10.8-13.32-16.98-.02-2.91-.03-5.82-.04-8.72.03,6.18,4.47,12.34,13.32,16.98,17.59,9.24,45.88,9.03,63.21-.47,8.61-4.72,12.89-10.84,12.87-16.94Z"/>
        <path class="st2" d="M452.91,319.18c17.58,9.24,17.79,24.43.46,33.93-17.33,9.5-45.63,9.71-63.21.47-17.58-9.24-17.79-24.42-.46-33.93,17.33-9.5,45.63-9.71,63.22-.47ZM401.95,347.12c10.97,5.77,28.65,5.64,39.47-.29,10.82-5.93,10.69-15.41-.29-21.18-10.97-5.77-28.65-5.64-39.47.29-10.82,5.93-10.69,15.42.29,21.18h0Z"/>
        <g class="st12">
          <path class="st2" d="M434.14,334.46c0,1.15,0,2.3.01,3.45,0,1.86-1.2,3.72-3.63,5.16-4.89,2.89-12.88,2.95-17.84.13-2.5-1.42-3.75-3.3-3.76-5.17,0-1.15-.01-2.3-.02-3.44,0,1.88,1.26,3.75,3.76,5.17,4.96,2.82,12.95,2.76,17.84-.13,2.43-1.44,3.63-3.3,3.63-5.16Z"/>
          <path class="st2" d="M430.38,329.28c4.96,2.82,5.03,7.44.14,10.34-4.89,2.89-12.88,2.94-17.84.13-4.96-2.82-5.02-7.44-.13-10.33,4.89-2.89,12.88-2.95,17.84-.13Z"/>
        </g>
        <path class="st0" d="M427.21,329c-.4,2.71-4.87,5.1-7.27,5.8-2.47.72-5.16.47-7.61.87,1.7,4.06,6.53,4.02,10.26,3.85,2.96-.14,6.71-.38,9.06-2.52,1.48-1.34,1.48-4.01.58-5.65-.99-1.81-3.21-2.06-4.67-2.72l-.35.36Z"/>
        <path class="st0" d="M457.97,326.82c1.01,1.28-1.46,2.94-1.87,4.25-.78,2.58.27,4.84-1.35,7.31-3.42,5.24-7.62,8.52-13.11,11.45-5.97,3.19-12.91,4.53-19.61,5.03-6.08.46-12.43-.02-18.44.85,1.03.81,3.22.59,4.54.81,2.46.4,4.88.57,7.37.78,4.27.37,8.39.48,12.67.17,7.46-.53,14.99-1.51,22.02-4.13,6.84-2.54,14.16-9.93,14.17-17.79,0-1.99-.8-4.29-1.87-5.96-.76-1.18-4.09-2.31-4.18-2.8h-.36Z"/>
        <path class="st0" d="M461.62,334.02c-.65-.71-2.07-.07-2.71.57-1.17,1.16-.74,2.52-1.03,3.94-.65,3.11-4,5.68-6.36,7.53-2.95,2.32-6.23,4.24-9.75,5.54-3.11,1.16-6.69,1.93-9.56,3.58,8.79.23,19.66-3.25,26.13-9.52,1.79-1.74,3.38-4.43,4.24-6.8.4-1.09.86-5.58-1.3-5.25,0-.14.04-.26.1-.38l.23.77Z"/>
        <path class="st0" d="M429.25,331.14c.62,3.76-8.98,7.97-11.81,7.69,2.21.13,4.28,1.04,6.59.78,1.91-.21,3.73-.8,5.46-1.61,1.55-.72,2.97-1.56,2.85-3.49-.09-1.59-1.62-3.26-2.95-3.09l-.15-.28Z"/>
        <path class="st0" d="M432.43,313.85c-3.15-.97-6.74-.15-10.01-.28-2.92-.11-5.54-.11-8.46.18-5.66.55-11,1.59-16.27,3.85-5.29,2.28-10.26,4.73-14.25,8.96-3.18,3.37-6.23,9.41-4.68,14.14,1.78,5.42,6.36,9.46,11.49,11.82,2.83,1.31,7.48,2.67,10.55,1.65,1.51-.5,2.94-1.28,4.52-1.69,1.29-.33,2.71-.37,3.84-1.03-2.12-.82-3.85-2.17-5.82-3.3-2.36-1.35-5.04-2.1-7.12-4-3.06-2.81-5.66-7.8-4.42-11.96,1.49-4.97,8.38-8.01,12.96-9.35,5.88-1.72,13.01-3.95,19.2-3.09,3.52.49,6.19-.04,9.73-.51,2.57-.34,6.13-.27,7.97-2.46-.53-1.36-3.78-1.87-5.1-2.24-1.82-.5-3.89-.61-5.64-1.17l1.5.46Z"/>
        <path class="st0" d="M448.89,317.84c-2.21-.07-4.76-1.44-6.94-2.01-2.61-.69-5.34-1-7.99-1.68-5.77-1.5-11.84-1.4-17.78-1.17-9.68.36-21.13,3.59-28.76,9.72-6.13,4.93-11.86,15.14-6.62,22.57,1.25,1.77,3.2,2.9,4.99,3.98,1.98,1.2,3.55,2.65,5.71,3.56,2.31.98,4.56,1.62,6.96,2.36,1.04.32,6.08,2.46,6.98,1.36.1-.03.18-.09.24-.17-.41-.6-1.07-1.04-1.41-1.71,2.57-1.83,6.2-.39,8.96-1.95-.3-1.29-6.03-1.77-7.41-2.26-3.29-1.17-6.16-2.45-8.92-4.58-4.43-3.42-8.66-9.58-5.51-15.42,3.37-6.24,12.83-10.32,19.42-11.38,1.53-.24,3.06-.27,4.53-.83,1.4-.54,2.53-1.4,4.07-1.61,3.47-.46,7.45-.11,10.94.17,3.71.3,7.41.33,11.1.5,1.28.06,2.57.19,3.85.29.52.05,2.41.31,2.08.15l1.49.1Z"/>
        <path class="st2" d="M432.84,324.04c0,3.67-5.36,6.64-11.96,6.64s-11.97-2.97-11.97-6.64,5.36-6.64,11.97-6.64,11.96,2.97,11.96,6.64Z"/>
        <polygon class="st2" points="408.91 323.07 420.88 263.26 432.35 322.16 408.91 323.07"/>
        <path class="st2" d="M432.84,261.99c0,6.29-5.47,11.4-12.22,11.4s-12.22-5.1-12.22-11.4,5.47-11.4,12.22-11.4,12.22,5.11,12.22,11.4Z"/>
        <path class="st1" d="M425.55,252.33c4.04,4.65,2.57,12.73-4.15,13.63-4.77.64-11.11-.55-10.92-6.64-2.53.97-.19,6.7.7,8.21,1.94,3.28,4.44,4.43,8.03,4.75,3.51.31,7.02-.14,9.35-3.16,2.02-2.62,3.34-7.05,2.26-10.3-.45-1.35-1.36-3.06-2.29-4.08-.84-.93-3.62-2.08-3.45-3.52l.47,1.11Z"/>
        <path class="st0" d="M423.18,251.55c1.48.6,1.34,4.09.92,5.39-.75,2.29-2.89,3.82-5.19,3.95-4.86.26-5.41-3.08-5.09-6.94-2.61-.58-4.02,6.15-4.09,7.86-.15,3.47,1.05,6.33,3.8,8.46,4.27,3.32,12.76,3.28,16-1.45,4.53-6.6,1.84-15.78-6.02-17.27h-.32Z"/>
        <path class="st3" d="M421.44,271.97c.01,2.47.57,4.82.79,7.28.35,3.84.52,7.71.83,11.56.51,6.24,1.6,12.78.55,19.01-.64,3.81-2.54,6.84-6.49,7.76-.93.21-2.56.33-3.44,0-1.29-.5-1.48-1.82-2.5-2.52-.74,2.54-1.28,5.68-1.15,8.37.14,2.81,2.86,4.7,5.38,5.38,4.33,1.17,12.97,2.82,15.49-2.37,1.51-3.13-.71-8.83-1.35-12.04-.89-4.42-1.28-8.92-2.26-13.29-1.54-6.9-2.81-13.79-4.08-20.58-.31-1.66-.52-3.42-.67-5.07-.06-.67-.62-4.9-1.43-3.63l.32.16Z"/>
        <path class="st3" d="M421.12,273.39c1.15,3.41,1.04,7.82,1.26,11.44.26,4.43.8,8.97.45,13.42-.27,3.41-1.2,6.12-4.2,7.91-1.86,1.11-4.33,1.71-5.43-.57-.79,3.57-1.3,7.3-2.01,10.9-.51,2.57-1.82,5.67-1.31,8.36.53,2.76,3.03,3.86,5.54,4.27,2.58.42,5.3.82,7.92.95,2.78.14,5.54-.66,7.16-2.97,2.02-2.89.56-7.57.15-10.8-.6-4.73-1.69-9.31-2.68-13.98-.88-4.14-1.27-8.36-2.09-12.47-.65-3.23-1.26-6.42-1.91-9.62-.32-1.57-.52-6.94-2.51-7.3-.22.62-.29,1.39-.03,1.88l-.32-1.43Z"/>
        <path class="st2" d="M419.38,274.19c-.12-.05-3.37,15.35-3.64,17.26-.66,4.68-2.35,9.59-2.03,14.39,1.8-.78,2.44-7.09,2.94-9.01.82-3.12,1.41-6.29,1.78-9.5.34-2.91.98-5.82,1.38-8.71.19-1.33.89-3.84-.28-4.59l-.16.16Z"/>
        <path class="st0" d="M415.73,253.13c-1.97,1.23-1.09,5.17.83,6.03,2.87,1.29,5.9-1.5,5.99-4.41.08-2.8-6.39-3.64-6.5-1.3l-.32-.32Z"/>
        <path class="st4" d="M421.75,273.56c0,3.49,1.45,7.26,1.94,10.73.49,3.44.64,6.9,1.1,10.32.8,5.93,2.11,11.81,2.78,17.74.39,3.51.92,7.89.19,11.4-.38,1.81-2.5,6.12-4.74,6.05,2.62.81,6.08-1.16,7.15-3.67,1.54-3.58-.3-9.34-.87-13-1.37-8.64-3.71-17.11-4.88-25.76-.37-2.71-.56-5.33-1.22-7.95-.55-2.17-1.3-4.33-1.62-6.49l.16.63Z"/>
        <path class="st4" d="M419.22,274.35c.32,3.74-2.15,7.54-1.56,11.23,1.37-1.28,1.36-4.78,1.71-6.63.21-1.11,1.07-3.82.32-4.61-.18.09-.33.21-.48.33v-.31Z"/>
        <path class="st4" d="M416.85,252.33c-5.47.88-7.61,9.39-5.22,13.73-.21-2.11.42-4.65,1.57-6.4,1.37-2.08,3.03-2.34,5.11-3.21,3.57-1.48,1.05-4.2-1.78-3.96l.32-.17Z"/>
        <path class="st0" d="M426.18,255.82c2.46,1.01,3.14,5.73,3.17,8.12.03,2.54-1.11,4.59-2.52,6.58,3.99-1.09,5.8-8.36,4.73-11.99-.43-1.49-1.89-3.71-3.04-4.71-.76-.67-1.69-1.32-2.47-.52-.63.65-.56,2.52.14,3,.17,0,.22-.11.15-.31l-.16-.16Z"/>
        <path class="st0" d="M410.83,313.3c-1.24,1.38-2.24,6.4-2.37,8.55-.11,1.82.21,2.69,1.31,4.08.86,1.08,2.55,2.01,3.11,3.17-1.58.08-1.97,1.58-3.35,2.06-.74.26-1.48-.18-2.05-.24-.8-.09-1.6.21-2.34.12-.78-.1-1.49-.82-2.37-.99-1.13-.22-1.97.07-3.05.4-1.76.53-3.49,1-4.88,2.28.2-2.09,3.64-4.48,5.24-5.49,2.03-1.29,4.21-2,5.54-3.94,2.14-3.13,3.27-8.36,6.01-10.61l-.79.63Z"/>
        <path class="st0" d="M430.46,313.61c.5,2.5,1.93,5.63,2.25,8.55.15,1.31.26,2.59-.23,3.79-.61,1.47-1.81,1.8-2.75,2.86,1.3.59,2.2,2.1,3.26,2.54.67.27,1.79.07,2.54.27.81.23,1.63.65,2.39.93,0-.53-.6-1.24-.49-1.69.29-1.17.44-.38,1.41-.78,1.19-.49,1.44-1.12,2.91-.68,3.24.98,5.33,3.34,7.67,5.38-1.62-2.58-3.34-4.75-5.65-6.8-1.1-.97-2.11-1.87-3.44-2.49-1.1-.52-2.9-.46-3.84-1.1-1.5-1.02.16-1.39,0-2.86-.08-.75-.72-.91-.95-1.58-.23-.65.08-1.12,0-1.74-.31-2.44-2.83-4.43-4.91-5.22l-.16.63Z"/>
        <path class="st0" d="M415.58,329.92c-1.13-.21-2.42,1.34-2.38,2.53.05,1.4,1.8,2.4,3.16,2.82,2.67.82,6.53.07,9.03-.96,1.36-.56,4.98-3.87,2.38-5.19-.73-.37-2.76.5-3.49.64-1.12.22-2.28.57-3.48.64-1.67.1-4.35.03-5.7-.96l.48.48Z"/>
        <path class="st0" d="M414.79,329.76c-.21.04-.22-.32-.32-.01-.43,3.32,13.66,3.53,14.39-.59-4.56-.09-10.38,2.7-14.7.29l.63.31Z"/>
        <g>
          <path class="st2" d="M421.74,241.75c10.35,0,19.69,4.5,26.25,11.68,1.31-1.36,2.64-2.71,3.98-4.04-7.58-8.26-18.32-13.44-30.24-13.44s-23.42,5.54-31.03,14.32c1.43,1.23,2.84,2.49,4.21,3.78,6.59-7.54,16.16-12.3,26.81-12.3Z"/>
          <path class="st2" d="M381.23,241.32c9.29-11.45,24-18.87,40.54-18.87s30.5,7.05,39.82,18.01c1.95-1.68,3.94-3.3,5.98-4.87-10.77-12.58-27.29-20.65-45.8-20.65s-35.14,8.13-45.9,20.77c1.08,1.19,2.16,2.37,3.28,3.51.69.7,1.39,1.39,2.09,2.09Z"/>
          <path class="st2" d="M420.82,202.09c22.83,0,42.79,11.54,53.41,28.62.86-.62,1.71-1.23,2.57-1.84,1.61-1.33,3.23-2.64,4.86-3.94-12.46-19.06-35.06-31.82-60.84-31.82s-46.56,11.77-59.29,29.57c2.76,1.54,5.18,3.51,7.43,5.67,10.94-15.78,30.09-26.26,51.86-26.26Z"/>
        </g>
        <g class="st6">
          <path class="st2" d="M421.74,240.07c10.35,0,19.69,4.5,26.25,11.68,1.31-1.36,2.64-2.71,3.98-4.04-7.58-8.26-18.32-13.44-30.24-13.44s-23.42,5.54-31.03,14.32c1.43,1.23,2.84,2.49,4.21,3.78,6.59-7.54,16.16-12.3,26.81-12.3Z"/>
          <path class="st2" d="M381.23,239.63c9.29-11.45,24-18.86,40.54-18.86s30.5,7.05,39.82,18.02c1.95-1.68,3.94-3.31,5.98-4.87-10.77-12.58-27.29-20.65-45.8-20.65s-35.14,8.13-45.9,20.77c1.08,1.19,2.16,2.37,3.28,3.51.69.7,1.39,1.39,2.09,2.08Z"/>
          <path class="st2" d="M420.82,200.41c22.83,0,42.79,11.54,53.41,28.62.86-.62,1.71-1.23,2.57-1.84,1.61-1.33,3.23-2.64,4.86-3.94-12.46-19.06-35.06-31.83-60.84-31.83s-46.56,11.77-59.29,29.58c2.76,1.54,5.18,3.51,7.43,5.67,10.94-15.78,30.09-26.26,51.86-26.26Z"/>
        </g>
      </g>
    </g>
  </g>
</svg>