<?xml version="1.0" encoding="UTF-8"?>
<svg id="Layer_1" xmlns="http://www.w3.org/2000/svg" version="1.1" viewBox="0 0 841.89 595.28">
  <!-- Generator: Adobe Illustrator 29.7.1, SVG Export Plug-In . SVG Version: 2.1.1 Build 8)  -->
  <defs>
    <style>
      .st0 {
        fill: #0a2c4b;
      }

      .st1, .st2 {
        fill: #fcd01a;
      }

      .st2 {
        stroke: #fcd01a;
        stroke-miterlimit: 10;
        stroke-width: 2px;
      }
    </style>
  </defs>
  <g>
    <circle class="st0" cx="449.48" cy="297.64" r="219.12"/>
    <circle class="st0" cx="449.48" cy="297.64" r="173.79"/>
    <path class="st2" d="M449.48,123.84c-95.98,0-173.79,77.81-173.79,173.79s77.81,173.79,173.79,173.79,173.79-77.81,173.79-173.79-77.81-173.79-173.79-173.79ZM449.48,468.7c-94.47,0-171.06-76.59-171.06-171.06s76.59-171.06,171.06-171.06,171.06,76.59,171.06,171.06-76.59,171.06-171.06,171.06Z"/>
  </g>
  <g>
    <path class="st1" d="M500.91,351.11h-76.45l19.16,17.12c1.48,1.32,2.29,3.25,2.17,5.24-.44,7.22-5.42,10.96-10.45,10.96-2.39,0-4.78-.85-6.71-2.57l-37.29-33.31c-2.14-1.92-3.37-4.65-3.37-7.52s1.23-5.6,3.37-7.52l37.29-33.31c6.01-5.37,16.68-2.22,17.18,8.64.08,1.9-.77,3.72-2.19,4.99l-19.16,17.12h78.55c1.89,0,3.73.79,4.93,2.25,6.89,8.43,1.03,17.91-7.03,17.91Z"/>
    <path class="st1" d="M398.05,264.32h20.06s56.39,0,56.39,0l-19.16,17.12c-1.48,1.32-2.29,3.25-2.17,5.24.44,7.22,5.42,10.96,10.45,10.96,2.39,0,4.78-.85,6.71-2.57l37.29-33.31c2.14-1.92,3.37-4.65,3.37-7.52s-1.23-5.6-3.37-7.52l-37.29-33.31c-6.01-5.37-16.68-2.22-17.18,8.64-.08,1.9.77,3.72,2.19,4.99l19.16,17.12h-78.55c-1.89,0-3.73.79-4.93,2.25-6.89,8.43-1.03,17.91,7.03,17.91Z"/>
  </g>
</svg>