<?xml version="1.0" encoding="UTF-8"?>
<svg id="Layer_1" xmlns="http://www.w3.org/2000/svg" version="1.1" viewBox="0 0 841.89 595.28">
  <!-- Generator: Adobe Illustrator 29.7.1, SVG Export Plug-In . SVG Version: 2.1.1 Build 8)  -->
  <defs>
    <style>
      .st0 {
        fill: #e22e28;
      }

      .st1 {
        fill: #0a2c4b;
      }

      .st2, .st3 {
        fill: #fcd01a;
      }

      .st3 {
        stroke: #fcd01a;
        stroke-miterlimit: 10;
        stroke-width: 2px;
      }
    </style>
  </defs>
  <circle class="st1" cx="420.94" cy="297.64" r="219.12"/>
  <path class="st2" d="M372.72,256.75v-23.76c0-12.88,5.02-24.99,14.13-34.1,9.11-9.11,21.22-14.12,34.1-14.12s24.99,5.02,34.1,14.12c9.11,9.11,14.13,21.22,14.13,34.1v23.76c0,12.88-5.02,24.99-14.13,34.1-9.11,9.11-21.22,14.12-34.1,14.12s-24.99-5.02-34.1-14.12c-9.11-9.11-14.13-21.22-14.13-34.1ZM513.78,391.84c-2.92,4.93-7.56,8.49-13.09,10.02-25.79,7.15-57.6,8.65-79.75,8.65s-53.96-1.5-79.75-8.65c-5.52-1.53-10.17-5.09-13.09-10.02-2.92-4.93-3.79-10.72-2.47-16.29l7.54-31.77c1.79-7.54,6.76-13.9,13.63-17.47l42.52-22.06c9.28,6.21,20.19,9.54,31.61,9.54s22.32-3.33,31.61-9.54l42.52,22.06c6.87,3.56,11.84,9.93,13.63,17.47l7.54,31.77c1.32,5.58.45,11.36-2.47,16.29Z"/>
  <path class="st1" d="M391.4,304.98h58.89c2.8,0,4.97,2.26,4.62,4.81l-13.45,97.15c-.28,2.04-2.17,3.57-4.42,3.57h-31.57c-2.23,0-4.12-1.52-4.41-3.55l-14.07-97.36c-.35-2.45,1.72-4.62,4.41-4.62Z"/>
  <path class="st0" d="M427.36,333.18l8.14,73.51c.23,2.04-1.41,3.82-3.52,3.82h-22.06c-2.12,0-3.76-1.8-3.51-3.85l8.75-73.42c.07-.59-.02-1.18-.25-1.73l-6.92-16.14c-.97-2.27.74-4.78,3.27-4.78h19.49c2.49,0,4.2,2.44,3.3,4.7l-6.48,16.27c-.2.51-.28,1.07-.22,1.62Z"/>
  <path class="st3" d="M420.94,123.84c-95.98,0-173.79,77.81-173.79,173.79s77.81,173.79,173.79,173.79,173.79-77.81,173.79-173.79-77.81-173.79-173.79-173.79ZM420.94,468.7c-94.47,0-171.06-76.59-171.06-171.06s76.59-171.06,171.06-171.06,171.06,76.59,171.06,171.06-76.59,171.06-171.06,171.06Z"/>
</svg>