<?xml version="1.0" encoding="UTF-8"?>
<svg id="Layer_1" xmlns="http://www.w3.org/2000/svg" version="1.1" viewBox="0 0 841.89 595.28">
  <!-- Generator: Adobe Illustrator 29.7.1, SVG Export Plug-In . SVG Version: 2.1.1 Build 8)  -->
  <defs>
    <style>
      .st0 {
        fill: #0a2c4b;
      }

      .st1 {
        fill: #ee2e24;
        stroke: #0a2c4b;
        stroke-width: 7px;
      }

      .st1, .st2 {
        stroke-miterlimit: 10;
      }

      .st3, .st2 {
        fill: #fcd01a;
      }

      .st2 {
        stroke: #fcd01a;
        stroke-width: 2px;
      }
    </style>
  </defs>
  <g>
    <circle class="st0" cx="420.94" cy="297.64" r="219.12"/>
    <path class="st3" d="M372.72,256.75v-23.76c0-12.88,5.02-24.99,14.13-34.1,9.11-9.11,21.22-14.12,34.1-14.12s24.99,5.02,34.1,14.12c9.11,9.11,14.13,21.22,14.13,34.1v23.76c0,12.88-5.02,24.99-14.13,34.1-9.11,9.11-21.22,14.12-34.1,14.12s-24.99-5.02-34.1-14.12c-9.11-9.11-14.13-21.22-14.13-34.1ZM513.78,391.84c-2.92,4.93-7.56,8.49-13.09,10.02-25.79,7.15-57.6,8.65-79.75,8.65s-53.96-1.5-79.75-8.65c-5.52-1.53-10.17-5.09-13.09-10.02-2.92-4.93-3.79-10.72-2.47-16.29l7.54-31.77c1.79-7.54,6.76-13.9,13.63-17.47l42.52-22.06c9.28,6.21,20.19,9.54,31.61,9.54s22.32-3.33,31.61-9.54l42.52,22.06c6.87,3.56,11.84,9.93,13.63,17.47l7.54,31.77c1.32,5.58.45,11.36-2.47,16.29Z"/>
    <path class="st2" d="M420.94,123.84c-95.98,0-173.79,77.81-173.79,173.79s77.81,173.79,173.79,173.79,173.79-77.81,173.79-173.79-77.81-173.79-173.79-173.79ZM420.94,468.7c-94.47,0-171.06-76.59-171.06-171.06s76.59-171.06,171.06-171.06,171.06,76.59,171.06,171.06-76.59,171.06-171.06,171.06Z"/>
  </g>
  <circle class="st1" cx="490.99" cy="367.09" r="43.42"/>
  <path class="st3" d="M482.41,383.03l-11.17-11.17c-.98-.98-.98-2.57,0-3.55l3.57-3.57c.98-.98,2.57-.98,3.55,0l5.82,5.82,19.42-19.42c.98-.98,2.57-.98,3.55,0l3.57,3.57c.98.98.98,2.57,0,3.55l-24.76,24.76c-.98.98-2.57.98-3.55,0Z"/>
</svg>