<?xml version="1.0" encoding="UTF-8"?>
<svg id="Layer_1" xmlns="http://www.w3.org/2000/svg" version="1.1" viewBox="0 0 841.89 595.28">
  <!-- Generator: Adobe Illustrator 29.7.1, SVG Export Plug-In . SVG Version: 2.1.1 Build 8)  -->
  <defs>
    <style>
      .st0 {
        fill: #62c3a9;
      }

      .st1 {
        fill: #fff;
      }

      .st2 {
        fill: #ed1c24;
      }

      .st3 {
        fill: #0a2c4b;
      }

      .st4 {
        fill: #ee2e24;
      }

      .st5, .st6 {
        fill: #fcd01a;
      }

      .st6 {
        stroke: #fcd01a;
        stroke-miterlimit: 10;
        stroke-width: 2px;
      }
    </style>
  </defs>
  <g>
    <circle class="st3" cx="420.94" cy="297.64" r="219.12"/>
    <circle class="st3" cx="420.94" cy="297.64" r="173.79"/>
    <path class="st6" d="M420.94,123.84c-95.98,0-173.79,77.81-173.79,173.79s77.81,173.79,173.79,173.79,173.79-77.81,173.79-173.79-77.81-173.79-173.79-173.79ZM420.94,468.7c-94.47,0-171.06-76.59-171.06-171.06s76.59-171.06,171.06-171.06,171.06,76.59,171.06,171.06-76.59,171.06-171.06,171.06Z"/>
  </g>
  <polygon class="st1" points="521.22 380.47 473.95 361.86 420.63 378.24 367.31 361.86 320.04 380.47 352.79 303.05 387.78 282.95 420.63 298.21 453.48 282.95 488.47 303.05 521.22 380.47"/>
  <polygon class="st1" points="388.04 288.86 367.1 356.3 329.75 371 356.94 306.72 388.04 288.86"/>
  <polygon class="st2" points="420.63 304 420.63 372.74 367.1 356.3 388.04 288.86 420.63 304"/>
  <polygon class="st1" points="474.16 356.3 420.63 372.74 420.63 304 453.22 288.86 474.16 356.3"/>
  <polygon class="st1" points="511.52 371 474.16 356.3 453.22 288.86 484.32 306.72 511.52 371"/>
  <path class="st3" d="M464.74,325.93c-.77.36-1.53.74-2.27,1.14-9.54,5.09-17.28,13.14-26.68,18.41-.09-1.77-.22-3.54-.41-5.3-.63-5.95-1.83-11.98-.65-17.84.18-.88.41-1.74.67-2.58,7.67-3.01,16.91-6.93,24.04-10.88l5.3,17.06Z"/>
  <path class="st0" d="M490.51,321.36c-8.79-.72-17.78.84-25.78,4.58l-5.3-17.06-6.21-20.01,31.1,17.86,6.19,14.64Z"/>
  <path class="st0" d="M367.1,356.3l-37.35,14.71,7.44-17.59h0s11.94-28.22,11.94-28.22c0,0,20.81-10.51,31.78-13.37l-8.59,27.68-5.21,16.79Z"/>
  <path class="st0" d="M372.31,339.51c3.22.21,6.36.82,9.32,1.87,5.41,1.91,10.34,4.96,15.7,7.01,7.38,2.82,15.5,3.59,23.3,2.37v21.99l-53.53-16.44,5.21-16.79Z"/>
  <path class="st5" d="M490.73,302.09l-.32-.76-36.81-21.15-32.97,15.32-32.97-15.32-36.81,21.15-35.36,83.58,51.92-20.44,53.22,16.35,53.22-16.35,51.92,20.44-35.04-82.82ZM420.63,375.66l-53.42-16.41-42.62,16.78,30.15-71.26,33.16-19.05,32.73,15.21,32.73-15.21,33.16,19.05,30.15,71.26-42.62-16.78-53.42,16.41Z"/>
  <path class="st3" d="M485.19,306.35l-.12-.29-31.8-18.27-32.64,15.16-32.64-15.16-31.52,18.11-.28.16-28.2,66.65,39.14-15.41,53.5,16.43,53.5-16.43,39.14,15.41-28.07-66.36ZM349.86,325.88c2.48-1.24,19.33-9.58,29.63-12.67l-7.86,25.32c-4.57-.22-9.36.32-14.09,1.63-6.68,1.85-12.79,5.08-17.63,9.27l9.96-23.55ZM388.62,290.17l31.06,14.43v19.19c-4.19-1.68-9.42-3.54-14.66-5.3.12-5.25-1.61-9.46-5.14-12.54-2.5-2.18-5.93-3.79-10.17-4.77-1.34-.31-2.77-.56-4.28-.74l3.19-10.26ZM383.52,300.23c-1.69-.14-3.46-.22-5.31-.22h0c-3.24,0-6.19.22-8.51.47l16.72-9.6-2.9,9.35ZM458.3,308.41c-6.37,3.47-14.34,6.91-21.33,9.69.72-1.88,1.6-3.73,2.46-5.53.68-1.44,1.39-2.93,2.02-4.44,2.18-5.22,2.82-9.81,1.9-13.66l9.28-4.31,5.67,18.24ZM489.04,320.31c-4.4-.23-8.82.09-13.16.97-3.67.74-7.21,1.86-10.57,3.35l-4.74-15.25c2.13-.81,6.42-1.11,15.04,1.15,5.02,1.31,9.48,2.99,10.75,3.48l2.67,6.31ZM465.88,326.45c3.29-1.47,6.77-2.58,10.38-3.31,4.48-.91,9.06-1.2,13.6-.88l12.35,29.2c-7.2-1.24-12.03-4.15-16.71-6.97-4.83-2.91-9.41-5.67-15.84-5.86l-3.78-12.18ZM419.69,325.83v24.11c-1.44.2-2.9.34-4.36.4-6.05.25-12.16-.72-17.66-2.83-1.02-.39-2.04-.83-3.05-1.28,2.35-3.19,4.33-6.48,5.91-9.81,2.48-5.24,3.95-10.61,4.39-15.97,5.34,1.81,10.63,3.7,14.77,5.39ZM421.58,325.87c1.67-.58,6.45-2.25,12.41-4.56-.07.28-.13.56-.19.84-.99,4.9-.37,9.91.23,14.76.14,1.11.28,2.25.4,3.37.17,1.55.29,3.1.38,4.66-.7.38-1.4.75-2.12,1.09-3.47,1.67-7.24,2.89-11.12,3.6v-23.76ZM436.31,340.08c-.12-1.14-.26-2.29-.4-3.41-.58-4.7-1.19-9.55-.26-14.15.14-.7.32-1.38.52-2.07,7.27-2.86,15.85-6.51,22.7-10.21l4.71,15.18c-.53.26-1.05.53-1.57.8-5,2.67-9.56,6.17-13.96,9.56-3.66,2.81-7.41,5.7-11.41,8.09-.08-1.27-.19-2.54-.33-3.81ZM439.71,307.41c-.61,1.46-1.31,2.93-1.98,4.35-1.11,2.35-2.25,4.75-3.09,7.27-5.92,2.31-10.85,4.07-13.06,4.84v-19.27l20.03-9.31c.69,3.37.06,7.44-1.89,12.11ZM398.65,307.37c2.95,2.57,4.46,6.1,4.49,10.48-9.29-3.09-18.22-5.81-21.05-6.66l2.77-8.93c5.02.59,10.24,2.01,13.78,5.1ZM381.53,313c2.85.86,12.07,3.66,21.53,6.82-.37,5.28-1.8,10.58-4.24,15.75-1.58,3.34-3.58,6.63-5.96,9.83-.82-.39-1.64-.79-2.45-1.19-2.72-1.33-5.54-2.7-8.47-3.74-2.63-.93-5.45-1.53-8.38-1.82l7.97-25.67ZM381.31,342.27c2.83,1,5.59,2.35,8.27,3.65.69.34,1.39.68,2.1,1.02-.36.45-.72.89-1.09,1.34-4.98,5.97-9.91,9.78-11.27,10.79l-11.05-3.39,4.71-15.16c2.92.25,5.72.84,8.33,1.76ZM392.01,349.53c.49-.58.96-1.17,1.43-1.77,1.17.53,2.35,1.05,3.55,1.51,5.74,2.2,12.11,3.22,18.42,2.95,1.43-.06,2.86-.19,4.28-.38v19.62l-38.13-11.71c2.13-1.68,6.24-5.17,10.46-10.22ZM421.58,351.55c4.17-.73,8.22-2.02,11.94-3.82.47-.23.93-.46,1.39-.7.23,6.98-.32,13.96-1.65,20.84l-11.68,3.59v-19.91ZM436.76,346.02c4.42-2.54,8.49-5.67,12.45-8.72,4.34-3.34,8.84-6.8,13.7-9.39.41-.22.83-.43,1.25-.64l3.55,11.42c-2.96.31-6.02,1.73-9.11,4.23-2.75,2.22-5.55,5.32-8.31,9.19-4.08,5.71-6.82,11.35-7.54,12.87l-7.45,2.29c1.28-7.02,1.77-14.13,1.46-21.23ZM468.28,340.53l4.7,15.15-27.75,8.52c2.96-5.84,12.49-22.96,23.05-23.67ZM470.26,340.55c5.6.34,9.64,2.77,14.27,5.56,4.85,2.92,10.33,6.22,18.55,7.4l6.68,15.79-34.84-13.72-4.67-15.04ZM485.36,311.61c-2.08-.76-5.51-1.93-9.24-2.91-7.41-1.94-12.81-2.32-16.1-1.13l-5.19-16.7,28.73,16.51,1.79,4.23ZM357.69,307.38l7.63-4.38c.97-.17,6.44-1.1,12.89-1.1h.03c1.47,0,3.06.05,4.7.18l-2.78,8.97c-8.97,2.45-23.54,9.4-29.17,12.16l6.7-15.83ZM337.99,353.93c4.96-5.51,12.07-9.75,20.04-11.95,4.37-1.21,8.79-1.74,13.01-1.59l-4.72,15.19-34.84,13.72,6.5-15.37Z"/>
  <g>
    <path class="st4" d="M463.32,240.42c0,8.21-2.37,16.48-7.2,23.71l-35.48,53.07-35.48-53.07c-11.32-16.93-9.1-39.51,5.3-53.91,8.33-8.34,19.26-12.5,30.18-12.5s21.85,4.17,30.18,12.5c8.25,8.25,12.5,19.18,12.5,30.2Z"/>
    <path class="st5" d="M420.63,321.63l-37.53-56.13c-2.94-4.39-5.06-9.21-6.32-14.32-1.22-4.97-1.58-10.08-1.08-15.19.5-5.11,1.85-10.05,4.02-14.69,2.23-4.77,5.25-9.08,8.99-12.82,4.31-4.31,9.33-7.65,14.94-9.92,5.41-2.19,11.12-3.31,16.99-3.31s11.58,1.11,16.99,3.31c5.6,2.27,10.63,5.61,14.94,9.92,4.28,4.28,7.61,9.29,9.88,14.87,2.22,5.44,3.34,11.18,3.34,17.06,0,8.95-2.63,17.63-7.62,25.08l-37.53,56.13ZM420.63,200.18c-5.23,0-10.32.99-15.14,2.94-4.99,2.02-9.46,5-13.3,8.84-3.33,3.33-6.03,7.17-8.01,11.42-1.93,4.13-3.13,8.54-3.58,13.09-.45,4.55-.12,9.1.96,13.53,1.12,4.55,3.01,8.84,5.63,12.76l33.44,50.01,33.44-50.01c4.44-6.64,6.79-14.37,6.79-22.34,0-5.24-1-10.36-2.98-15.21-2.03-4.98-4.99-9.43-8.81-13.25-3.84-3.84-8.32-6.81-13.3-8.84-4.82-1.95-9.91-2.94-15.14-2.94Z"/>
    <circle class="st5" cx="420.63" cy="240.4" r="16.58"/>
    <path class="st3" d="M420.63,259.44c10.5,0,19.04-8.54,19.04-19.04s-8.54-19.04-19.04-19.04-19.04,8.54-19.04,19.04,8.54,19.04,19.04,19.04ZM420.63,226.29c7.78,0,14.11,6.33,14.11,14.11s-6.33,14.11-14.11,14.11-14.11-6.33-14.11-14.11,6.33-14.11,14.11-14.11Z"/>
  </g>
</svg>