<?xml version="1.0" encoding="UTF-8"?>
<svg id="Layer_1" xmlns="http://www.w3.org/2000/svg" version="1.1" viewBox="0 0 841.89 595.28">
  <!-- Generator: Adobe Illustrator 29.7.1, SVG Export Plug-In . SVG Version: 2.1.1 Build 8)  -->
  <defs>
    <style>
      .st0 {
        fill: #0a2c4b;
      }

      .st1 {
        fill: #ee2e24;
      }

      .st2, .st3 {
        fill: #fcd01a;
      }

      .st3 {
        stroke: #fcd01a;
        stroke-miterlimit: 10;
        stroke-width: 2px;
      }
    </style>
  </defs>
  <circle class="st0" cx="420.94" cy="297.64" r="219.12"/>
  <circle class="st0" cx="420.94" cy="297.64" r="173.79"/>
  <path class="st3" d="M420.94,123.84c-95.98,0-173.79,77.81-173.79,173.79s77.81,173.79,173.79,173.79,173.79-77.81,173.79-173.79-77.81-173.79-173.79-173.79ZM420.94,468.7c-94.47,0-171.06-76.59-171.06-171.06s76.59-171.06,171.06-171.06,171.06,76.59,171.06,171.06-76.59,171.06-171.06,171.06Z"/>
  <circle class="st1" cx="420.94" cy="297.64" r="88.71"/>
  <path class="st2" d="M395.44,320.37v-45.46c0-5.83,6.44-9.36,11.36-6.23l36.23,23.08c4.6,2.93,4.55,9.65-.09,12.52l-36.23,22.38c-4.92,3.04-11.27-.5-11.27-6.29Z"/>
</svg>