<?xml version="1.0" encoding="UTF-8"?>
<svg id="Layer_1" xmlns="http://www.w3.org/2000/svg" version="1.1" viewBox="0 0 841.89 595.28">
  <!-- Generator: Adobe Illustrator 29.7.1, SVG Export Plug-In . SVG Version: 2.1.1 Build 8)  -->
  <defs>
    <style>
      .st0 {
        fill: #fff;
      }

      .st1 {
        fill: #0a2c4b;
      }

      .st2 {
        fill: #010101;
      }

      .st3 {
        fill: #fcd01a;
        stroke: #fcd01a;
        stroke-miterlimit: 10;
        stroke-width: 2px;
      }
    </style>
  </defs>
  <g>
    <circle class="st1" cx="420.94" cy="297.64" r="219.12"/>
    <circle class="st1" cx="420.94" cy="297.64" r="173.79"/>
    <path class="st3" d="M420.94,123.84c-95.98,0-173.79,77.81-173.79,173.79s77.81,173.79,173.79,173.79,173.79-77.81,173.79-173.79-77.81-173.79-173.79-173.79ZM420.94,468.7c-94.47,0-171.06-76.59-171.06-171.06s76.59-171.06,171.06-171.06,171.06,76.59,171.06,171.06-76.59,171.06-171.06,171.06Z"/>
  </g>
  <g>
    <path class="st0" d="M508.19,276.01v89.68c0,10.72-8.78,19.17-19.17,19.17h-89.03c-10.72,0-19.17-8.78-19.17-19.17v-13.65c0-2.28,1.95-4.22,4.22-4.22h73.13c7.35,0,13.3-5.95,13.3-13.3v-73.13c0-2.28,1.95-4.23,4.22-4.23h13.65c10.4,0,19.17,8.45,18.85,18.85Z"/>
    <path class="st2" d="M350.59,210.41h93.25c9.32,0,16.89,7.57,16.89,16.89v93.25c0,9.33-7.57,16.9-16.9,16.9h-93.25c-9.32,0-16.89-7.57-16.89-16.89v-93.25c0-9.33,7.57-16.9,16.9-16.9Z"/>
  </g>
</svg>