<?xml version="1.0" encoding="UTF-8"?>
<svg id="Layer_1" xmlns="http://www.w3.org/2000/svg" version="1.1" xmlns:xlink="http://www.w3.org/1999/xlink" viewBox="0 0 841.89 595.28">
  <!-- Generator: Adobe Illustrator 29.7.1, SVG Export Plug-In . SVG Version: 2.1.1 Build 8)  -->
  <defs>
    <style>
      .st0 {
        opacity: .3;
      }

      .st0, .st1 {
        fill: #010101;
      }

      .st2 {
        fill: #fff;
      }

      .st3 {
        fill: none;
      }

      .st4 {
        fill: #0a2c4b;
      }

      .st5 {
        clip-path: url(#clippath-1);
      }

      .st6 {
        opacity: .15;
      }

      .st7 {
        fill: #257fbe;
      }

      .st8 {
        fill: #ee2e24;
      }

      .st9, .st10 {
        fill: #fcd01a;
      }

      .st11 {
        fill: #f0b01e;
      }

      .st12 {
        clip-path: url(#clippath-2);
      }

      .st10 {
        stroke: #fcd01a;
        stroke-miterlimit: 10;
        stroke-width: 2px;
      }

      .st13 {
        clip-path: url(#clippath);
      }
    </style>
    <clipPath id="clippath">
      <path class="st3" d="M348.12,284.2c-.1,0-.2,0-.3,0-3.43.12-6.87.7-8.79,1.84-2.15,1.27-2.57,4.16-2.12,6.92.45,2.72,1.74,5.31,3.09,6.07.89.51,3.99.83,7.82.96,2.42.08,5.12.08,7.74,0,5.89-.17,12.14-.45,12.17-1.74.19-8.36-3.91-14.06-19.61-14.06Z"/>
    </clipPath>
    <clipPath id="clippath-1">
      <path class="st3" d="M493.76,284.12c.1,0,.2,0,.3,0,3.43.12,6.87.7,8.79,1.83,2.15,1.27,2.57,4.16,2.12,6.92-.44,2.72-1.74,5.3-3.09,6.07-.89.51-4,.83-7.82.96-2.41.08-5.12.08-7.74,0-5.89-.17-12.14-.45-12.17-1.74-.19-8.37,3.91-14.06,19.61-14.06Z"/>
    </clipPath>
    <clipPath id="clippath-2">
      <path class="st3" d="M484.33,236.41c-2.64-9.84-7.72-13.25-17.26-13.25l-82.47.44c-9.54,0-17.36,7.74-23.5,19.08-6.13,11.35-13.66,31.14-13.66,31.14h145.96s-6.42-27.58-9.06-37.42Z"/>
    </clipPath>
  </defs>
  <g>
    <circle class="st4" cx="420.94" cy="297.64" r="219.12"/>
    <circle class="st4" cx="420.94" cy="297.64" r="173.79"/>
    <path class="st10" d="M420.94,123.84c-95.98,0-173.79,77.81-173.79,173.79s77.81,173.79,173.79,173.79,173.79-77.81,173.79-173.79-77.81-173.79-173.79-173.79ZM420.94,468.7c-94.47,0-171.06-76.59-171.06-171.06s76.59-171.06,171.06-171.06,171.06,76.59,171.06,171.06-76.59,171.06-171.06,171.06Z"/>
  </g>
  <g>
    <ellipse class="st0" cx="420.94" cy="380.86" rx="125.73" ry="8.34"/>
    <path class="st1" d="M348.52,263.6c0,5.86-5.42,10.61-12.11,10.61s-12.11.35-12.11-10.61,5.42-10.61,12.11-10.61,12.11,4.75,12.11,10.61Z"/>
    <path class="st1" d="M493.36,263.52c0,5.86,5.42,10.61,12.11,10.61s12.11.35,12.11-10.61-5.42-10.61-12.11-10.61-12.11,4.75-12.11,10.61Z"/>
    <path class="st9" d="M503.47,273.74h-82.82v.08h-82.24s-.06.08-.17.24c16.61,11.83,26.07,14.09,33.15,50.48,16.93,1.07,31.09,1.39,49.84,1.32v-.08c18.57.05,32.51-.26,49.26-1.32,7.08-36.39,16.55-38.65,33.15-50.48-.11-.16-.18-.24-.18-.24Z"/>
    <path class="st9" d="M503.47,274.01s-8.43-22.16-15.29-34.86c-6.86-12.7-15.62-21.36-26.3-21.36l-41.22-.25v.08l-40.65.24c-10.68,0-19.44,8.66-26.3,21.36-6.87,12.7-15.29,34.86-15.29,34.86h82.82v-.08h82.24Z"/>
    <path class="st3" d="M473.57,236.41c-2.64-9.84-7.72-13.25-17.26-13.25l-71.72.44c-9.54,0-17.36,7.74-23.5,19.08-6.13,11.35-13.66,31.14-13.66,31.14h135.2s-6.42-27.58-9.06-37.42Z"/>
    <path class="st1" d="M352.16,328.9h3.09c7.59,0,13.74,6.16,13.74,13.74v19.24c0,7.59-6.16,13.74-13.74,13.74h-3.09c-7.59,0-13.74-6.16-13.74-13.74v-19.24c0-7.59,6.16-13.75,13.75-13.75Z"/>
    <path class="st1" d="M338.24,274.06c-9.8,3.83-13.78,18.05-13.78,30.68,0,6.74,19.78,18.8,45.25,20.41,2.88-34.23-14.87-39.27-31.47-51.09Z"/>
    <path class="st4" d="M351.67,302.24c-1.38,0-2.73-.02-4.01-.06-7.17-.24-8.45-.97-8.93-1.25-2.21-1.26-3.67-4.74-4.15-7.63-.69-4.22.45-7.55,3.13-9.13,2.82-1.67,7.44-2.07,9.93-2.16h.38c8.85,0,14.85,1.73,18.35,5.31,2.61,2.67,3.82,6.3,3.71,11.11-.07,3.04-4,3.44-14.39,3.74-1.33.04-2.69.06-4.03.06ZM348.04,286.04h-.15c-3.58.13-6.66.74-8.11,1.61-1.71,1.01-1.36,4.09-1.21,5.01.43,2.6,1.62,4.47,2.17,4.78.37.17,2.37.56,7.06.71,2.43.08,5.15.08,7.78,0,2.17-.06,8.29-.24,10.48-.78-.07-3.21-.9-5.52-2.56-7.22-2.7-2.76-7.76-4.11-15.46-4.11Z"/>
    <g>
      <path class="st1" d="M397.71,287.68s-5.46,0-8.33,3.1c-2.86,3.09-3.12,5.77-3.12,5.77h32.45v-8.87h-20.99Z"/>
      <path class="st1" d="M386.25,301.08s.26,2.68,3.12,5.77c2.87,3.09,8.33,3.09,8.33,3.09h20.99v-8.86h-32.45Z"/>
    </g>
    <rect class="st2" x="408.6" y="206.07" width="30.1" height="11.69"/>
    <path class="st8" d="M385.04,206.07h26.14c2.4,0,4.36,1.95,4.36,4.36v2.98c0,2.4-1.95,4.36-4.36,4.36h-26.13c-2.41,0-4.36-1.95-4.36-4.36v-2.98c0-2.4,1.95-4.36,4.36-4.36Z"/>
    <path class="st7" d="M432.51,206.07h26.13c2.4,0,4.36,1.95,4.36,4.36v2.98c0,2.4-1.95,4.35-4.35,4.35h-26.13c-2.41,0-4.36-1.95-4.36-4.36v-2.98c0-2.4,1.95-4.36,4.36-4.36Z"/>
    <g>
      <path class="st2" d="M348.12,284.2c-.1,0-.2,0-.3,0-3.43.12-6.87.7-8.79,1.84-2.15,1.27-2.57,4.16-2.12,6.92.45,2.72,1.74,5.31,3.09,6.07.89.51,3.99.83,7.82.96,2.42.08,5.12.08,7.74,0,5.89-.17,12.14-.45,12.17-1.74.19-8.36-3.91-14.06-19.61-14.06Z"/>
      <g class="st13">
        <path class="st11" d="M348.28,288.74c0,3.79-3.07,6.86-6.86,6.86-2.93,0-6.5-.01-6.5-.01,0,0-.36-3.77-.36-6.84,0-3.79,3.07-6.85,6.86-6.85,2.68,0,6.83,1.74,6.83,1.74,0,0,.03,4,.03,5.11Z"/>
      </g>
    </g>
    <path class="st1" d="M486.64,328.82h3.09c7.59,0,13.74,6.16,13.74,13.74v19.24c0,7.59-6.16,13.74-13.74,13.74h-3.09c-7.59,0-13.75-6.16-13.75-13.75v-19.24c0-7.59,6.16-13.74,13.74-13.74Z"/>
    <path class="st1" d="M503.65,273.98c9.8,3.83,13.78,18.05,13.78,30.68,0,6.74-19.78,18.8-45.25,20.41-2.88-34.23,14.87-39.27,31.47-51.09Z"/>
    <path class="st9" d="M517.43,304.66s-28.19-1.13-34.92,3.41c-6.72,4.54-10.62,9.68-10.62,9.68h-51.24v.08h-50.66s-3.89-5.14-10.62-9.68c-6.72-4.54-34.92-3.41-34.92-3.41,0,0-.43,4.62-.43,10.11v27.06c0,5.49,4.45,9.94,9.93,9.94h87.27v-.08h86.69c5.49,0,9.94-4.45,9.94-9.93v-27.06c0-5.49-.43-10.11-.43-10.11Z"/>
    <path class="st4" d="M486.19,302.1c-10.39-.3-14.32-.7-14.39-3.74-.11-4.81,1.1-8.45,3.71-11.11,3.5-3.58,9.5-5.32,18.35-5.32h.38c2.5.1,7.11.5,9.94,2.17,2.68,1.58,3.82,4.91,3.13,9.13-.48,2.89-1.94,6.37-4.15,7.63-.48.27-1.75,1-8.92,1.24-1.28.04-2.63.07-4.01.07s-2.69-.02-4.03-.06ZM478.39,290.07c-1.66,1.71-2.49,4.02-2.56,7.22,2.18.54,8.31.72,10.47.78,2.63.08,5.35.08,7.78,0,4.68-.15,6.68-.55,7.06-.71.55-.31,1.74-2.18,2.17-4.78.15-.92.51-3.99-1.21-5.01-1.45-.86-4.53-1.47-8.11-1.6h-.15c-7.7,0-12.76,1.34-15.46,4.1Z"/>
    <g>
      <path class="st1" d="M444.18,287.6s5.47,0,8.33,3.09c2.86,3.09,3.13,5.77,3.13,5.77h-32.45v-8.86h20.99Z"/>
      <path class="st1" d="M455.64,301s-.26,2.68-3.13,5.77c-2.86,3.09-8.33,3.09-8.33,3.09h-20.99v-8.86h32.45Z"/>
    </g>
    <path class="st2" d="M493.76,284.12c.1,0,.2,0,.3,0,3.43.12,6.87.7,8.79,1.83,2.15,1.27,2.57,4.16,2.12,6.92-.44,2.72-1.74,5.3-3.09,6.07-.89.51-4,.83-7.82.96-2.41.08-5.12.08-7.74,0-5.89-.17-12.14-.45-12.17-1.74-.19-8.37,3.91-14.06,19.61-14.06Z"/>
    <g class="st5">
      <path class="st11" d="M493.61,288.66c0,3.79,3.07,6.86,6.86,6.86,2.93,0,6.49-.01,6.49-.01,0,0,.36-3.77.36-6.84,0-3.79-3.07-6.86-6.85-6.86-2.68,0-6.83,1.75-6.83,1.75,0,0-.02,4-.02,5.11Z"/>
    </g>
    <path class="st1" d="M473.52,335.86h-52.86v.08h-52.29c-2.72,0-4.93,2.21-4.93,4.93s2.21,4.93,4.93,4.93h52.87v-.08h52.28c2.72,0,4.93-2.21,4.93-4.93s-2.21-4.92-4.93-4.92Z"/>
    <path class="st1" d="M480.69,242.68c-6.13-11.35-13.95-19.08-23.5-19.08l-37.65-.19v-.02h-2.38s-2.85,0-2.85,0v.03l-29.72.19c-9.54,0-17.36,7.74-23.5,19.08-6.13,11.35-13.66,31.14-13.66,31.14h146.92s-7.53-19.79-13.66-31.14Z"/>
    <g class="st12">
      <g class="st6">
        <polygon class="st2" points="416.63 297.37 410.4 300.06 366.78 202.81 373.01 200.13 416.63 297.37"/>
        <polygon class="st2" points="436.69 288.73 426.66 293.05 383.04 195.81 393.07 191.49 436.69 288.73"/>
      </g>
    </g>
  </g>
</svg>