<?xml version="1.0" encoding="UTF-8"?>
<svg id="Layer_1" xmlns="http://www.w3.org/2000/svg" version="1.1" viewBox="0 0 841.89 595.28">
  <!-- Generator: Adobe Illustrator 29.7.1, SVG Export Plug-In . SVG Version: 2.1.1 Build 8)  -->
  <defs>
    <style>
      .st0 {
        fill: #fff;
      }

      .st1 {
        fill: #0a2c4b;
      }

      .st2 {
        fill: #ee2e24;
      }

      .st3 {
        fill: #fcd01a;
        stroke: #fcd01a;
        stroke-miterlimit: 10;
        stroke-width: 2px;
      }
    </style>
  </defs>
  <g>
    <circle class="st1" cx="420.94" cy="297.64" r="219.12"/>
    <circle class="st1" cx="420.94" cy="297.64" r="173.79"/>
    <path class="st3" d="M420.94,123.84c-95.98,0-173.79,77.81-173.79,173.79s77.81,173.79,173.79,173.79,173.79-77.81,173.79-173.79-77.81-173.79-173.79-173.79ZM420.94,468.7c-94.47,0-171.06-76.59-171.06-171.06s76.59-171.06,171.06-171.06,171.06,76.59,171.06,171.06-76.59,171.06-171.06,171.06Z"/>
  </g>
  <path class="st0" d="M508.04,288.06l-16,14.55c-5.01,13.18-10.87,27.15-21.26,36.69l-18.46,16.91c-5.34,4.9-11.05,9.35-17.08,13.34l-8.88,6.12-48.67-36.2,12.21-21.84c-.33.02-.66.06-1.02.05l-.14-.02c-2.02-.09-3.59-1.82-3.49-3.84l.67-13.98c.27-5.56,2.63-10.8,6.62-14.67l12.6-12.23c4.07-3.96,8.93-7.05,14.25-9.07l.17-.06c6.62-2.51,13.62-3.87,20.68-4.04l.16.03c8.97,1.58,18.13-1.41,24.43-7.99l3.59-3.74,39.62,39.99Z"/>
  <path class="st0" d="M425.48,262.35l-.18-.06c-6.75-2.14-13.8-3.12-20.87-2.91l-.15.03c-8.87,2.07-18.19-.42-24.83-6.65l-3.05-2.86-43.98,36.63,22.64,18.43c5.72,12.91,12.32,26.53,23.24,35.48l19.35,15.89c5.59,4.59,11.54,8.73,17.78,12.39l7.42,4.34,2.68,1.97c3.76,3.2,10.98,4.77,15.19,1.49l.06-.07c1.32-1.89,2.14-4.38.73-7.28l-.58-.49c3.89,2.64,10.18,2.87,13.17-.63l.06-.07c2.01-2.36,1.79-5.83-.39-7.96l.64.54c3.76,3.2,9.41,2.75,12.61-1.01l.06-.07c2.09-2.46,1.8-6.15-.66-8.24l-17.48-15.13h0l17.58,14.96c3.74,3.18,9.35,2.72,12.53-1.01l.09-.11c2.09-2.46,1.79-6.15-.67-8.24l-19.9-16.93c-.35-.3-11.34-11.9-17.49-18.4-3.33-3.52-6.05-7.57-7.87-12.06-.52-1.29-.9-2.41-1.25-3.58l-6.47-28.39Z"/>
  <path class="st1" d="M467.71,352.61l-2.74-2.55-17.59-15.37c-.43-.38-.93-.68-1.46-.9h-.01c-.59-.24-1.26-.14-1.75.26l-.6.48,14.08,11.99c2.43,2.07,5.13,3.8,8.02,5.13l2.06.96Z"/>
  <path class="st1" d="M454.8,360.93l-2.75-2.55-17.59-15.37c-.43-.38-.93-.68-1.47-.9h-.02c-.58-.24-1.26-.14-1.75.26l-.59.48,14.07,11.99c2.43,2.07,5.13,3.8,8.03,5.13l2.06.96Z"/>
  <path class="st1" d="M441.89,369.25l-2.74-2.55-17.59-15.37c-.43-.38-.93-.68-1.46-.9h-.02c-.59-.24-1.26-.14-1.75.26l-.59.48,14.07,11.99c2.43,2.07,5.13,3.8,8.03,5.13l2.06.95Z"/>
  <path class="st1" d="M443.06,304.31c-3.29-3.48-5.98-7.49-7.8-11.91-.88.16-1.75.34-2.62.45.17.47.34.94.55,1.46,1.82,4.48,4.54,8.54,7.87,12.06,6.15,6.5,17.14,18.1,17.49,18.4l14.42,12.27c.66-.69,1.33-1.37,1.95-2.1l-14.37-12.22c-.35-.3-11.35-11.91-17.5-18.4Z"/>
  <path class="st1" d="M374.56,356.52l-2.19-2.31c-2.22-2.34-2.12-6.04.22-8.26l14.49-13.94c2.95-2.8,7.61-2.68,10.41.27l.1.11c2.8,2.95,2.67,7.61-.28,10.41l-14.49,13.94c-2.34,2.22-6.04,2.13-8.26-.21Z"/>
  <path class="st1" d="M386.72,365.36l-2.19-2.31c-2.22-2.34-2.12-6.04.22-8.26l18.95-17.98c2.95-2.8,7.61-2.68,10.41.27l.1.11c2.8,2.95,2.67,7.61-.28,10.41l-18.95,17.98c-2.34,2.22-6.04,2.13-8.26-.21Z"/>
  <path class="st1" d="M401.24,372.09l-2.19-2.31c-2.22-2.34-2.12-6.04.22-8.26l18.95-17.98c2.95-2.8,7.62-2.68,10.41.27l.1.11c2.8,2.95,2.67,7.6-.28,10.41l-18.95,17.98c-2.34,2.22-6.04,2.13-8.26-.21Z"/>
  <path class="st1" d="M415.13,377.68l-1.22-1.29c-2.22-2.34-2.18-6.2.16-8.42l12.32-11.75c2.89-2.48,7.16-2.71,10.04-.17l.11.11c2.8,2.95,2.71,7.04-.24,9.84l-11.74,11.4c-2.34,2.22-7.22,2.62-9.44.28Z"/>
  <path class="st0" d="M373.18,356.59l-2.19-2.32c-2.22-2.34-2.13-6.04.22-8.26l14.49-13.94c2.95-2.8,7.62-2.68,10.41.27l.11.11c2.8,2.95,2.68,7.62-.27,10.41l-14.5,13.94c-2.34,2.22-6.04,2.13-8.27-.22Z"/>
  <path class="st0" d="M385.36,365.44l-2.19-2.32c-2.22-2.34-2.13-6.04.21-8.27l18.95-17.98c2.95-2.8,7.62-2.68,10.41.27l.1.11c2.8,2.95,2.68,7.62-.27,10.41l-18.95,17.98c-2.34,2.22-6.05,2.13-8.27-.22Z"/>
  <path class="st0" d="M399.89,372.18l-2.2-2.31c-2.22-2.34-2.13-6.05.22-8.27l18.95-17.98c2.95-2.8,7.62-2.68,10.42.27l.1.11c2.8,2.95,2.68,7.62-.27,10.42l-18.95,17.98c-2.34,2.22-6.05,2.13-8.27-.21Z"/>
  <path class="st0" d="M413.78,377.78l-1.22-1.28c-2.22-2.34-2.18-6.21.16-8.43l12.33-11.75c2.88-2.48,7.15-2.7,10.05-.16l.1.11c2.8,2.95,2.72,7.05-.23,9.85l-11.74,11.4c-2.34,2.23-7.22,2.62-9.45.27Z"/>
  <path class="st1" d="M389.15,342.88l-.02-.04c-1.3-2.5-3.32-4.54-5.79-5.87l-.04-.02,4.24-4.19c1.7-1.67,4.37-1.71,5.97-.1l.06.06c1.6,1.62,1.52,4.29-.18,5.97l-4.24,4.19Z"/>
  <path class="st1" d="M420.22,354.65l-.02-.04c-1.32-2.55-3.38-4.64-5.91-5.99l-.04-.02,4.34-4.27c1.73-1.71,4.46-1.76,6.09-.1l.06.06c1.63,1.66,1.55,4.38-.18,6.09l-4.34,4.28Z"/>
  <path class="st1" d="M429.01,364.94l-.02-.03c-1.04-2-2.66-3.64-4.65-4.71h-.03s3.41-3.38,3.41-3.38c1.36-1.34,3.51-1.38,4.79-.08l.05.05c1.29,1.3,1.22,3.44-.15,4.79l-3.4,3.36Z"/>
  <path class="st1" d="M405.5,348.87l-.02-.04c-1.44-2.76-3.67-5.03-6.42-6.49l-.04-.03,4.7-4.64c1.88-1.85,4.83-1.9,6.6-.11l.07.06c1.77,1.8,1.68,4.76-.2,6.61l-4.7,4.63Z"/>
  <path class="st1" d="M421.64,293.14l-7.16-.57c-1.74-.14-3.45.44-4.74,1.61l-4.33,3.93c-1.47,1.33-2.47,3.1-2.87,5.04l-.95,4.62c-1.22,5.98-6.62,10.18-12.72,9.89h-.14c-.4-.03-.76-.13-1.12-.26.39,1.51,1.72,2.67,3.37,2.75h.14c6.09.3,11.5-3.9,12.71-9.88l.95-4.63c.4-1.94,1.4-3.71,2.87-5.04l4.33-3.93c1.29-1.17,3-1.75,4.73-1.62l7.16.58c11.58.76,18.72-3.04,23.24-6.58-10.19,3.65-16.36,4.69-25.48,4.08Z"/>
  <path class="st3" d="M534.8,263.73l-41.25-41.92-5.81-5.9-19.68,22.85c-2.32,2.7-2.18,6.73.32,9.26l.05.05,39.62,39.98.06.06c3.32,3.35,8.65,3.61,12.28.59l21.44-17.84-7.02-7.13Z"/>
  <path class="st3" d="M359.15,216.96l-9.46,7.93-26.36,22.1-23.26,19.5,21.14,21.33c2.47,2.49,6.44,2.68,9.14.43l2.06-1.71,43.98-36.63.03-.03c2.14-1.78,2.54-4.89.94-7.15l-18.22-25.77Z"/>
  <path class="st1" d="M416.84,261.69c-5.32,2.01-10.17,5.09-14.25,9.05l-12.6,12.23c-3.99,3.88-6.36,9.12-6.62,14.67l-.67,13.99c-.09,1.8,1.14,3.35,2.83,3.75-.2-.48-.3-1.01-.27-1.56l.67-13.99c.27-5.55,2.63-10.8,6.62-14.67l12.6-12.23c4.08-3.96,8.93-7.05,14.25-9.05l.18-.07c1.69-.64,3.39-1.19,5.12-1.68-1.7-.52-3.42-.97-5.15-1.34-.84.27-1.69.52-2.52.83l-.18.07Z"/>
  <path class="st2" d="M328.35,266.59c2.51,2.71,2.35,6.95-.36,9.45-2.72,2.51-6.95,2.35-9.46-.36-2.51-2.72-2.34-6.95.37-9.46,2.71-2.51,6.95-2.35,9.45.37Z"/>
  <path class="st1" d="M385.91,300.12l.07-.07c.63-.63,1.46-1.03,2.34-1.14h.02l-.47,9.79c-.08,1.59-.69,3.11-1.74,4.31l-.89,1.02.67-13.91Z"/>
  <path class="st2" d="M522.02,277.17c-2.76,2.46-6.99,2.22-9.45-.54-2.46-2.76-2.22-6.99.54-9.45,2.76-2.46,6.99-2.22,9.45.54,2.46,2.76,2.22,6.99-.54,9.45Z"/>
  <polygon class="st1" points="468.42 248.23 465.43 251.2 464.92 251.73 504.29 291.46 507.95 288.13 468.42 248.23"/>
  <path class="st1" d="M379.44,252.77l-3.05-2.86-28.95,24.11-14.99,12.55,3.91,3.18,43.64-36.51c-.18-.16-.38-.3-.55-.46Z"/>
</svg>