<?xml version="1.0" encoding="UTF-8"?>
<svg id="Layer_1" xmlns="http://www.w3.org/2000/svg" version="1.1" viewBox="0 0 841.89 595.28">
  <!-- Generator: Adobe Illustrator 29.7.1, SVG Export Plug-In . SVG Version: 2.1.1 Build 8)  -->
  <defs>
    <style>
      .st0 {
        fill: #cccbca;
      }

      .st1 {
        fill: #0a2c4b;
      }

      .st2 {
        fill: #989798;
      }

      .st3, .st4 {
        fill: #fcd01a;
      }

      .st4 {
        stroke: #fcd01a;
        stroke-miterlimit: 10;
        stroke-width: 2px;
      }

      .st5 {
        fill: #d1d3d1;
      }

      .st6 {
        fill: #fbfcfc;
      }
    </style>
  </defs>
  <g>
    <circle class="st1" cx="420.94" cy="297.64" r="219.12"/>
    <path class="st4" d="M420.94,123.84c-95.98,0-173.79,77.81-173.79,173.79s77.81,173.79,173.79,173.79,173.79-77.81,173.79-173.79-77.81-173.79-173.79-173.79ZM420.94,468.7c-94.47,0-171.06-76.59-171.06-171.06s76.59-171.06,171.06-171.06,171.06,76.59,171.06,171.06-76.59,171.06-171.06,171.06Z"/>
  </g>
  <g>
    <path class="st3" d="M483.1,403.97h-124.31c-8.43,0-15.26-6.92-15.26-15.45v-168.38c0-8.53,6.83-15.45,15.26-15.45h124.31c8.43,0,15.26,6.92,15.26,15.45v168.38c0,8.53-6.83,15.45-15.26,15.45Z"/>
    <polygon class="st0" points="474.36 226.06 367.53 226.06 370.01 222.78 370.01 212.61 471.88 212.61 471.88 222.78 474.36 226.06"/>
    <polygon class="st2" points="471.88 222.78 471.88 217.47 370.01 217.47 370.01 222.78 367.53 226.06 474.36 226.06 471.88 222.78"/>
    <polygon class="st2" points="471.88 218.16 370.01 218.16 370.01 222.78 367.53 226.06 474.36 226.06 471.88 222.78 471.88 218.16"/>
    <rect class="st5" x="367.53" y="222.78" width="106.83" height="3.28"/>
    <path class="st0" d="M467.16,203.39c-1.44-2.8-4.32-4.57-7.47-4.57h-31.02c-.11-4.17-3.52-7.52-7.72-7.52s-7.61,3.35-7.72,7.52h-31.35c-3.24,0-6.19,1.86-7.58,4.79l-4.28,9h101.88l-4.72-9.22ZM420.94,203.28c-2.35,0-4.25-1.9-4.25-4.25s1.9-4.25,4.25-4.25,4.25,1.9,4.25,4.25-1.9,4.25-4.25,4.25Z"/>
    <polygon class="st2" points="370.34 211.92 370.01 212.61 471.88 212.61 471.53 211.92 370.34 211.92"/>
    <path class="st2" d="M420.94,203.28c-2.26,0-4.1-1.77-4.24-4,0,.08-.01.17-.01.25,0,2.35,1.9,4.25,4.25,4.25s4.25-1.9,4.25-4.25c0-.09,0-.17-.01-.25-.13,2.23-1.97,4-4.24,4Z"/>
    <rect class="st6" x="360.5" y="233.87" width="120.88" height="157.87" rx="3.57" ry="3.57"/>
    <g>
      <rect class="st1" x="368.59" y="256.78" width="104.71" height="2.91"/>
      <rect class="st1" x="368.59" y="265.1" width="104.71" height="2.91"/>
      <rect class="st1" x="368.59" y="273.43" width="71.63" height="2.91"/>
      <rect class="st1" x="368.59" y="292.23" width="104.71" height="2.91"/>
      <rect class="st1" x="368.59" y="300.55" width="104.71" height="2.91"/>
      <rect class="st1" x="368.59" y="308.88" width="94.67" height="2.91"/>
      <rect class="st1" x="368.59" y="327.68" width="104.71" height="2.91"/>
      <rect class="st1" x="368.59" y="336" width="104.71" height="2.91"/>
      <rect class="st1" x="368.59" y="363.13" width="104.71" height="2.91"/>
      <rect class="st1" x="368.59" y="371.45" width="104.71" height="2.91"/>
      <rect class="st1" x="368.59" y="379.78" width="33.88" height="2.91"/>
      <rect class="st1" x="368.59" y="242.56" width="104.71" height="8.35"/>
    </g>
  </g>
</svg>